<svg width="134" height="37" viewBox="0 0 134 37" fill="none" xmlns="http://www.w3.org/2000/svg">
<g clip-path="url(#clip0_1433_16005)">
<path d="M45.7544 7.45475H46.5501V1.63473L49.0166 5.18977H49.0564L51.5229 1.65442V7.45475H52.3186V0.118173H51.6224L49.0365 3.84063L46.4506 0.118173H45.7544V7.45475ZM55.9985 7.57293C56.3842 7.57863 56.7658 7.49428 57.1124 7.32673C57.416 7.18615 57.6767 6.96875 57.8683 6.69648V7.45475H58.6142V3.83078C58.6208 3.50611 58.5327 3.18645 58.3606 2.91001C58.1881 2.641 57.9437 2.42455 57.6545 2.28468C57.331 2.1288 56.9748 2.05117 56.6151 2.05818C56.3189 2.05778 56.0253 2.11291 55.7499 2.22067C55.4796 2.32414 55.229 2.47232 55.0089 2.6589C54.8072 2.82477 54.6457 3.03344 54.5365 3.26946L55.2128 3.63382C55.333 3.37767 55.5245 3.16075 55.7648 3.00849C56.0191 2.84508 56.317 2.76103 56.6201 2.76722C56.9482 2.75272 57.2702 2.85783 57.5252 3.06265C57.6381 3.15628 57.7281 3.27405 57.7884 3.4071C57.8487 3.54015 57.8777 3.68501 57.8733 3.83078V4.10652L55.9438 4.42164C55.4564 4.47048 55.0003 4.68237 54.6509 5.02236C54.3835 5.31273 54.2377 5.69298 54.2431 6.08592C54.2384 6.35907 54.3182 6.62712 54.4718 6.85404C54.6296 7.08176 54.8459 7.26364 55.0984 7.3809C55.3808 7.51446 55.6905 7.58185 56.0035 7.57785L55.9985 7.57293ZM55.0338 6.05637C55.0322 5.93997 55.0537 5.82441 55.0973 5.71626C55.1408 5.60812 55.2054 5.50953 55.2874 5.42612C55.518 5.22026 55.8089 5.09262 56.1179 5.06175L57.8683 4.77616V5.17007C57.8722 5.47717 57.7932 5.77972 57.6396 6.04652C57.4881 6.30789 57.2682 6.52393 57.003 6.67186C56.711 6.83104 56.3815 6.91089 56.0482 6.90328C55.7821 6.91434 55.5214 6.82653 55.3172 6.65709C55.2278 6.58418 55.1559 6.49241 55.1069 6.38848C55.0578 6.28455 55.0329 6.17108 55.0338 6.05637ZM63.05 7.57293C63.4431 7.57704 63.8315 7.48932 64.1839 7.31689C64.5173 7.15614 64.7996 6.90738 64.9994 6.598V7.45475H65.7453V0H64.9994V2.97402C64.7798 2.69106 64.4973 2.46193 64.1739 2.30438C63.824 2.13612 63.439 2.05178 63.05 2.05818C62.5756 2.05026 62.1086 2.17483 61.7024 2.41763C61.3086 2.65648 60.986 2.99463 60.7675 3.39748C60.5332 3.83358 60.4151 4.32166 60.4244 4.81555C60.4163 5.30775 60.5343 5.79395 60.7675 6.22871C60.9858 6.63458 61.3105 6.97475 61.7074 7.21348C62.1123 7.45504 62.5774 7.57955 63.05 7.57293ZM63.0898 6.83434C62.7506 6.83961 62.4172 6.74724 62.1301 6.56846C61.847 6.39005 61.617 6.14022 61.4637 5.84465C61.2982 5.5267 61.2145 5.17321 61.22 4.81555C61.2134 4.45621 61.2971 4.10086 61.4637 3.78154C61.6191 3.48716 61.8508 3.23903 62.135 3.06265C62.4209 2.88514 62.7524 2.79284 63.0898 2.79676C63.432 2.79238 63.7684 2.88461 64.0595 3.06265C64.3483 3.2403 64.585 3.48989 64.7458 3.78646C64.9176 4.10247 65.0049 4.45672 64.9994 4.81555C65.0049 5.17439 64.9176 5.52864 64.7458 5.84465C64.585 6.14122 64.3483 6.39081 64.0595 6.56846C63.7684 6.7465 63.432 6.83873 63.0898 6.83434ZM70.201 7.57293C70.543 7.57711 70.8825 7.51523 71.2006 7.39074C71.4864 7.27751 71.7492 7.11403 71.9763 6.9082C72.186 6.72621 72.3553 6.50324 72.4736 6.25333L71.8371 5.9185C71.674 6.19147 71.4535 6.42655 71.1906 6.60785C70.8995 6.79921 70.5552 6.89562 70.206 6.88358C69.893 6.88491 69.5849 6.80694 69.3109 6.65709C69.0328 6.50642 68.7982 6.28775 68.6296 6.0219C68.4463 5.72534 68.3483 5.38483 68.3461 5.03713H72.5433C72.5565 4.95178 72.5665 4.86808 72.5731 4.78601C72.5797 4.70395 72.583 4.63009 72.583 4.56444C72.5832 4.24994 72.5259 3.938 72.414 3.64367C72.3027 3.3473 72.1375 3.07361 71.9266 2.83615C71.7124 2.59499 71.4499 2.4005 71.1558 2.26498C70.831 2.12032 70.4775 2.04965 70.1215 2.05818C69.6605 2.05188 69.2071 2.17478 68.8136 2.4127C68.4254 2.64941 68.1078 2.98421 67.8936 3.38271C67.6621 3.81789 67.5458 4.30408 67.5555 4.79586C67.547 5.29339 67.6668 5.78485 67.9036 6.22378C68.1252 6.63051 68.4532 6.97067 68.8534 7.20856C69.2598 7.45147 69.7264 7.57763 70.201 7.57293ZM70.1215 2.74752C70.4085 2.74467 70.6913 2.81594 70.942 2.95433C71.1864 3.08741 71.392 3.28077 71.5387 3.51565C71.6939 3.76791 71.7764 4.05736 71.7774 4.35271H68.3611C68.3923 4.04739 68.5 3.75461 68.6744 3.50088C68.8363 3.26753 69.053 3.0766 69.3059 2.94448C69.5572 2.81332 69.8374 2.74566 70.1215 2.74752ZM76.6857 7.45475H79.8086C80.4341 7.48848 81.0486 7.28214 81.5243 6.87866C81.7367 6.67875 81.9031 6.43583 82.0121 6.16647C82.1211 5.8971 82.1701 5.60763 82.1558 5.31779C82.1608 4.94236 82.0573 4.57334 81.8574 4.25423C81.654 3.93142 81.3627 3.672 81.017 3.5058C81.2889 3.35106 81.5119 3.12451 81.6612 2.85148C81.8105 2.57845 81.8802 2.26969 81.8624 1.9597C81.8723 1.71067 81.8276 1.46246 81.7315 1.23213C81.6354 1.0018 81.49 0.794797 81.3055 0.625333C80.8894 0.271287 80.3515 0.089645 79.8036 0.118173H76.6906L76.6857 7.45475ZM77.4813 3.22022V0.856755H79.734C80.0789 0.841443 80.4184 0.945942 80.6938 1.15219C80.8164 1.25478 80.9131 1.38435 80.9761 1.53055C81.0392 1.67675 81.0668 1.83552 81.0568 1.99417C81.0625 2.15886 81.0331 2.32289 80.9706 2.47559C80.9081 2.62829 80.8137 2.76624 80.6938 2.88047C80.5647 2.99774 80.4134 3.08857 80.2487 3.14772C80.084 3.20687 79.9091 3.23318 79.734 3.22514L77.4813 3.22022ZM77.4813 6.71617V3.92926H79.8086C80.2193 3.90734 80.6229 4.04115 80.9375 4.30347C81.0786 4.43268 81.1895 4.59082 81.2625 4.76686C81.3355 4.94291 81.3688 5.1326 81.3602 5.32271C81.3701 5.51298 81.3374 5.70307 81.2643 5.87931C81.1912 6.05554 81.0796 6.21355 80.9375 6.34196C80.6209 6.60017 80.2183 6.73189 79.8086 6.71125L77.4813 6.71617ZM84.0753 9.62126C84.3874 9.63081 84.6964 9.55772 84.9705 9.40953C85.2131 9.2708 85.422 9.08083 85.5821 8.85314C85.7415 8.62552 85.8749 8.38112 85.98 8.1244L88.4167 2.16651H87.5912L85.8556 6.52906L84.1102 2.16651H83.3046L85.4379 7.45475L85.2489 7.90775C85.1429 8.20101 84.9692 8.46572 84.7417 8.6808C84.5223 8.82723 84.2597 8.89658 83.9958 8.87776C83.8909 8.87785 83.7861 8.86961 83.6825 8.85314C83.5797 8.83672 83.4952 8.82523 83.4289 8.81867V9.50801C83.5334 9.54699 83.6417 9.57504 83.7521 9.59172C83.859 9.6096 83.967 9.61947 84.0753 9.62126Z" fill="white" fill-opacity="0.5"/>
<path d="M93.7891 15.7948L93.2768 18.436H81.6017C81.6017 18.3877 81.5897 18.3375 81.5828 18.2922C81.5019 17.7641 81.2975 17.262 80.9859 16.8259C80.6552 16.38 80.2151 16.0251 79.707 15.7948H93.7891Z" fill="white"/>
<path d="M85.8118 19.3961L83.9917 28.783H87.808L89.6279 19.3961H85.8118Z" fill="white"/>
<path d="M53.3549 23.8454L51.9088 15.7948H47.9941L50.789 28.7939L53.3549 23.8454Z" fill="white"/>
<path d="M61.7261 22.8261L60.1925 15.7948H57.521L50.7847 28.7811V28.7899H53.9475L57.7905 21.2278L59.2824 27.5304L61.7261 22.8261Z" fill="white"/>
<path d="M66.375 15.7948L59.6338 28.7939H62.7269L69.7108 15.7948H66.375Z" fill="white"/>
<path d="M76.7217 23.7282C76.9362 23.6782 77.1475 23.6154 77.3543 23.5401C77.9606 23.3257 78.5197 22.9981 79.0013 22.575C79.7996 21.8678 80.3426 20.9216 80.5478 19.8806C80.642 19.4082 80.6541 18.9233 80.5836 18.4468C80.5125 17.9774 80.331 17.5311 80.0535 17.144C79.7277 16.7102 79.2882 16.373 78.7825 16.169C78.1204 15.901 77.4088 15.7731 76.6938 15.7938H67.3061L66.7969 18.4222H74.088V18.432H74.4859C75.1193 18.3449 75.7647 18.4126 76.3656 18.629C76.6786 18.8575 76.7751 19.2809 76.6551 19.8993C76.6051 20.2454 76.4629 20.572 76.2433 20.8457C76.0223 21.0789 75.7322 21.2366 75.4148 21.2958C74.9233 21.3893 74.4232 21.4302 73.9229 21.4179H73.0994L73.4913 19.3971H69.6662L67.8461 28.783H71.6713L72.6161 23.9103H73.3302L75.1811 28.783H78.8253L76.7217 23.7282Z" fill="white"/>
<path d="M106.46 26.8647C106.254 26.9785 106.023 27.041 105.787 27.0469C105.683 27.0503 105.58 27.0305 105.484 26.9889C105.389 26.9473 105.305 26.885 105.238 26.8066C105.165 26.7088 105.116 26.5957 105.095 26.4761C105.074 26.3565 105.081 26.2337 105.115 26.1172C105.155 25.9104 105.238 25.7142 105.36 25.5417C105.482 25.3692 105.64 25.2244 105.822 25.1167C106.17 24.9086 106.532 24.7266 106.907 24.5721L107.19 23.1098L106.975 23.1777L105.927 23.5027C105.252 23.7013 104.59 23.9421 103.946 24.2235C103.464 24.4362 103.029 24.7399 102.665 25.1177C102.309 25.503 102.072 25.9816 101.984 26.4964C101.912 26.8516 101.923 27.2183 102.015 27.5688C102.118 27.9303 102.356 28.2393 102.681 28.4324C103.134 28.6859 103.652 28.8049 104.173 28.7752C104.764 28.774 105.347 28.635 105.874 28.3694C105.992 28.3071 106.104 28.2354 106.209 28.1548L106.46 26.8647Z" fill="white"/>
<path d="M110.664 26.7406C110.614 26.7426 110.563 26.7329 110.517 26.7121C110.47 26.6913 110.43 26.6602 110.398 26.621C110.366 26.5819 110.343 26.5359 110.333 26.4868C110.322 26.4376 110.323 26.3866 110.335 26.3378L111.131 22.2589C111.235 21.8918 111.238 21.5036 111.14 21.1349C111.041 20.7663 110.844 20.4307 110.569 20.1633C110.04 19.6709 109.283 19.4207 107.475 19.404H104.62L104.223 21.4553H106.995C107.437 21.4858 107.723 21.6021 107.83 21.8158C107.962 22.1443 107.983 22.5063 107.891 22.8478L107.611 24.2895L107.195 26.4333L106.989 27.5018C106.944 27.6476 106.934 27.8015 106.96 27.9517C106.985 28.1018 107.045 28.2442 107.135 28.3679C107.224 28.4916 107.341 28.5933 107.477 28.6651C107.612 28.7369 107.763 28.7769 107.916 28.782H112.242L112.64 26.7406H110.664Z" fill="white"/>
<path d="M129.065 22.6449C129.007 22.0548 128.816 21.4849 128.508 20.9767C128.193 20.4706 127.739 20.0635 127.199 19.8028C126.57 19.5126 125.881 19.3714 125.187 19.3902C124.514 19.3882 123.846 19.5053 123.214 19.7359C122.651 19.9456 122.127 20.245 121.662 20.6222C121.373 20.2779 121.013 19.9977 120.607 19.7999C119.978 19.5097 119.289 19.3684 118.595 19.3873C117.922 19.3854 117.254 19.5024 116.623 19.7329C115.972 19.9749 115.373 20.3353 114.856 20.7955C114.326 21.2653 113.881 21.8228 113.542 22.443C113.19 23.0758 112.942 23.7598 112.807 24.4697C112.794 24.5426 112.779 24.6174 112.772 24.6725L111.976 28.781H114.96L115.841 24.2383C115.931 23.7509 116.192 23.3108 116.578 22.996C116.965 22.6812 117.451 22.5122 117.952 22.5188C118.162 22.5025 118.373 22.5333 118.57 22.6091C118.766 22.6848 118.943 22.8034 119.087 22.9562C119.231 23.1089 119.338 23.2918 119.401 23.4913C119.464 23.6908 119.48 23.9016 119.449 24.1083L118.543 28.781H121.56L122.376 24.5711C122.4 24.4482 122.422 24.3247 122.441 24.2008C122.536 23.7207 122.799 23.289 123.183 22.9815C123.568 22.6739 124.049 22.5101 124.544 22.5188C124.754 22.5025 124.965 22.5333 125.162 22.6091C125.359 22.6848 125.535 22.8034 125.679 22.9562C125.823 23.1089 125.931 23.2918 125.993 23.4913C126.056 23.6908 126.072 23.9016 126.041 24.1083L125.135 28.781H128.152L128.954 24.645C129.103 23.9889 129.14 23.313 129.065 22.6449Z" fill="white"/>
<path d="M91.665 24.9187H101.142L101.268 24.2718C101.502 23.3412 101.465 22.3638 101.16 21.4533C100.915 20.7812 100.431 20.2208 99.7977 19.8777C99.1782 19.5559 98.488 19.3908 97.7886 19.3971C96.7792 19.3778 95.7783 19.5852 94.8614 20.0037C94.0441 20.3813 93.3365 20.9572 92.8038 21.6778C92.2818 22.3971 91.9256 23.221 91.7604 24.0915C91.7074 24.3244 91.6743 24.5612 91.6611 24.7996C91.6647 24.8392 91.6659 24.879 91.665 24.9187ZM95.8293 21.9181C96.2027 21.5704 96.6972 21.3789 97.2097 21.3834C97.4274 21.3621 97.6469 21.3998 97.8447 21.4924C98.0425 21.585 98.2113 21.7291 98.3327 21.9092C98.5595 22.3429 98.614 22.8449 98.4857 23.3165H95.0763C95.165 22.7795 95.4308 22.2868 95.8322 21.9152L95.8293 21.9181Z" fill="white"/>
<path d="M95.0871 25.613H91.6758C91.6907 25.7469 91.7045 25.8808 91.7314 26.0128C91.8426 26.561 92.0977 27.0705 92.4712 27.49C92.8588 27.9175 93.3472 28.2436 93.8927 28.4393C94.5144 28.6699 95.1741 28.7828 95.8379 28.7722H97.4441L97.9028 26.4088H96.5102C96.2246 26.4054 95.9444 26.3308 95.6956 26.1917C95.4468 26.0526 95.2376 25.8535 95.0871 25.613Z" fill="white"/>
<path d="M41.4725 14.4289L35.8034 33.8911L35.5856 34.5479C35.0804 36.0694 34.7621 36.9242 33.9794 36.997H25.438L28.8792 25.1797L29.2124 24.0345L32.0102 14.428L41.4725 14.4289Z" fill="url(#paint0_linear_1433_16005)"/>
<path d="M35.587 34.5469C35.0818 36.0683 34.7635 36.9232 33.9808 36.9961H32.7723L32.107 36.416L28.8816 25.1788L28.8687 25.1325L29.2158 24.0335L29.2466 24.1319L29.3351 24.4165L29.4744 24.8626C29.5354 25.0595 29.597 25.2545 29.6593 25.4475L29.8831 26.1478L30.1397 26.9355L30.4222 27.7962L30.7205 28.7023C30.8193 29.0036 30.9251 29.3132 31.0378 29.6309C31.1446 29.9401 31.253 30.2494 31.363 30.5586C31.4731 30.8678 31.5818 31.1691 31.6893 31.4626C31.7947 31.7488 31.9018 32.0344 32.0105 32.3193C32.1113 32.5819 32.215 32.8446 32.3218 33.1072C32.4166 33.3396 32.5161 33.5693 32.6202 33.7965C32.7067 33.9935 32.7952 34.1836 32.8907 34.3736C32.9921 34.6099 33.1304 34.8288 33.3005 35.0225C33.4634 35.1856 33.6708 35.2982 33.8973 35.3465C34.0208 35.3707 34.1477 35.3731 34.2722 35.3535C34.4486 35.3244 34.6188 35.2657 34.7755 35.1801C35.0778 35.0125 35.3517 34.7987 35.587 34.5469Z" fill="url(#paint1_linear_1433_16005)"/>
<path d="M36.692 30.8304L41.466 14.4289H32.0991C32.4202 20.1597 33.9868 25.7543 36.692 30.8304Z" fill="url(#paint2_linear_1433_16005)"/>
<path d="M33.9489 36.998H24.4886C23.5785 36.9133 23.2662 35.7809 22.6197 33.7562C22.6028 33.704 21.7246 30.7171 20.737 27.3314L20.1403 25.2979C19.0174 21.4632 17.9313 17.7545 17.9045 17.6698C17.258 15.6451 16.9457 14.5136 16.0356 14.428H25.4662C26.1505 14.492 26.4966 15.1468 26.9004 16.3286C27.0337 16.7225 27.1739 17.1666 27.334 17.6689C27.3897 17.8442 32.0224 33.5789 32.0791 33.7542C32.7276 35.7809 33.0399 36.9124 33.9489 36.998Z" fill="url(#paint3_linear_1433_16005)"/>
<path d="M26.236 33.1298C25.3151 29.8081 22.8038 26.0848 20.374 26.0848C21.5049 29.948 22.6029 33.696 22.6218 33.7551C23.2682 35.7798 23.5805 36.9064 24.4905 36.997H28.7673C27.7339 36.6257 26.6905 34.7744 26.236 33.1298Z" fill="url(#paint4_linear_1433_16005)"/>
<path d="M26.9024 16.3296C26.8915 16.305 26.8785 16.2814 26.8656 16.2577C26.7372 16.0483 26.5496 15.8807 26.326 15.7757C26.1023 15.6707 25.8525 15.6328 25.6075 15.6669C25.372 15.6837 25.1493 15.7792 24.9759 15.9377C24.8173 16.1039 24.6869 16.2945 24.59 16.502L24.5652 16.5492C24.2956 17.0672 24.0599 17.601 23.8381 18.1407C23.6163 18.6803 23.4095 19.2337 23.2076 19.7842C22.815 20.8541 22.4429 21.9313 22.0917 23.0152C21.7847 23.9488 21.4863 24.8854 21.1965 25.8248C21.046 26.3113 20.8979 26.7985 20.752 27.2863L20.7371 27.3355L19.9772 28.0721C19.9404 28.0721 20.0578 26.4236 20.1413 25.3019L20.2189 24.2837L22.2637 17.6758L23.8192 15.1725L24.4767 14.433H25.4712C26.1525 14.493 26.4986 15.1479 26.9024 16.3296Z" fill="url(#paint5_linear_1433_16005)"/>
<path d="M16.0375 36.9981H7.49605C6.72426 36.9262 6.40202 36.094 5.9107 34.6129L5.672 33.8921L0.00292969 14.43H9.46331L12.2412 23.9665L12.3227 24.2472L16.0375 36.9981Z" fill="url(#paint6_linear_1433_16005)"/>
<path d="M12.5683 25.1354L12.5554 25.1817L9.32998 36.419L8.66463 36.999H7.49599C6.7242 36.9271 6.40196 36.095 5.91064 34.6139C6.13022 34.8431 6.38335 35.0383 6.66155 35.193C6.8182 35.2783 6.98837 35.3365 7.16479 35.3652C7.28919 35.3851 7.41619 35.3828 7.53976 35.3584C7.76621 35.3094 7.97348 35.1966 8.13651 35.0334C8.30665 34.8398 8.44492 34.6207 8.54626 34.3844C8.64572 34.1944 8.73125 34.0014 8.81679 33.8074L9.11518 33.118C9.22193 32.8554 9.32569 32.5928 9.42647 32.3302C9.53587 32.0453 9.64329 31.7597 9.74872 31.4735C9.85945 31.1728 9.96819 30.8714 10.0749 30.5694C10.1843 30.2601 12.254 24.0788 12.263 24.0384L12.3247 24.2491L12.5683 25.1354Z" fill="url(#paint7_linear_1433_16005)"/>
<path d="M5.32594 32.7014C5.88114 27.2822 7.57503 22.038 10.2988 17.3055L9.46038 14.428H0L5.32594 32.7014Z" fill="url(#paint8_linear_1433_16005)"/>
<path d="M23.5703 17.6708C23.5147 17.8461 18.8959 33.636 18.8561 33.7572C18.2096 35.7809 17.8973 36.9133 16.9873 36.999H7.52686C8.43689 36.9143 8.74919 35.7818 9.39566 33.7572C9.45135 33.5819 14.0841 17.8461 14.1408 17.6708C14.7873 15.6471 15.0996 14.5146 16.0096 14.4289H25.4391C24.5291 14.5136 24.2168 15.6461 23.5703 17.6708Z" fill="url(#paint9_linear_1433_16005)"/>
<path d="M12.0224 36.9981C13.183 34.8198 14.1219 32.541 15.1911 30.3124C16.4063 27.8005 17.8961 25.4281 19.6338 23.2378C20.6935 21.916 21.8316 20.6579 23.0422 19.47L23.5703 17.6719C24.2168 15.6481 24.5291 14.5157 25.4391 14.43H16.0096C15.0996 14.5147 14.7873 15.6472 14.1408 17.6719C14.0851 17.8471 9.45235 33.5828 9.39566 33.7581C8.74919 35.7818 8.43689 36.9143 7.52686 37L12.0224 36.9981Z" fill="url(#paint10_linear_1433_16005)"/>
<path d="M52.0184 33.4607L53.0527 31.5463H53.3183L52.1417 33.6931V35.0452H51.8881V33.7118L50.7065 31.5463H50.989L52.0184 33.4607ZM58.3837 33.2903C58.4109 33.7645 58.2627 34.2322 57.9669 34.606C57.8229 34.768 57.6438 34.8956 57.443 34.9795C57.2423 35.0634 57.0249 35.1014 56.8073 35.0905C56.5899 35.1013 56.3729 35.0633 56.1724 34.9794C55.972 34.8955 55.7932 34.7679 55.6496 34.606C55.3516 34.2308 55.2021 33.761 55.2289 33.2844C55.2015 32.8095 55.3524 32.3412 55.6526 31.9698C55.7975 31.8095 55.9767 31.6833 56.1772 31.6003C56.3776 31.5173 56.5942 31.4797 56.8112 31.4902C57.0285 31.4791 57.2454 31.5167 57.4458 31.6003C57.6463 31.6838 57.8251 31.8112 57.9689 31.9727C58.2659 32.3471 58.4148 32.816 58.3876 33.2913L58.3837 33.2903ZM55.4934 33.2903C55.4668 33.7048 55.5863 34.1155 55.8316 34.4524C55.9503 34.5908 56.0998 34.7 56.2685 34.7712C56.4371 34.8425 56.6202 34.8739 56.8033 34.863C56.9864 34.874 57.1696 34.843 57.3386 34.7724C57.5077 34.7019 57.658 34.5937 57.778 34.4563C58.0234 34.1185 58.1426 33.7066 58.1151 33.2913C58.143 32.8778 58.0237 32.4677 57.778 32.1322C57.6583 31.9958 57.5085 31.8884 57.3401 31.8186C57.1718 31.7487 56.9894 31.7182 56.8073 31.7295C56.6245 31.7189 56.4417 31.75 56.273 31.8205C56.1044 31.8911 55.9543 31.9991 55.8346 32.1362C55.5887 32.4701 55.4693 32.879 55.4974 33.2913L55.4934 33.2903ZM63.3923 31.5463V33.8113C63.4023 33.984 63.3761 34.1569 63.3153 34.3191C63.2545 34.4812 63.1606 34.6292 63.0393 34.7537C62.9062 34.872 62.7507 34.9629 62.5818 35.0212C62.413 35.0795 62.2341 35.1041 62.0556 35.0935C61.8801 35.1103 61.7031 35.0884 61.5371 35.0294C61.3712 34.9704 61.2205 34.8758 61.0959 34.7522C60.9713 34.6287 60.8759 34.4793 60.8166 34.315C60.7573 34.1506 60.7355 33.9752 60.7527 33.8014V31.5463H61.0014V33.8113C60.9867 33.9555 61.0046 34.1011 61.0539 34.2376C61.1032 34.3741 61.1826 34.498 61.2864 34.6002C61.3901 34.7025 61.5156 34.7805 61.6537 34.8287C61.7917 34.8769 61.9389 34.894 62.0845 34.8788C62.2267 34.8933 62.3705 34.8763 62.5053 34.8291C62.6402 34.782 62.7628 34.7057 62.8643 34.606C62.9658 34.5062 63.0437 34.3854 63.0924 34.2523C63.141 34.1191 63.1592 33.9769 63.1457 33.8359V31.5463H63.3923ZM66.199 33.5159V35.0403H65.9524V31.5463H66.7938C67.1354 31.5203 67.4763 31.6046 67.7655 31.7866C67.8725 31.8736 67.9568 31.9847 68.0115 32.1107C68.0662 32.2366 68.0896 32.3737 68.0798 32.5104C68.0861 32.7225 68.0203 32.9306 67.8928 33.1013C67.7467 33.2755 67.5468 33.3974 67.3239 33.4479L68.2837 35.0413H67.9853L67.0802 33.5228L66.199 33.5159ZM66.199 33.3051H66.8733C67.1214 33.3211 67.3674 33.2515 67.5696 33.1082C67.6536 33.0367 67.7197 32.9468 67.7626 32.8456C67.8054 32.7444 67.8237 32.6347 67.8162 32.5252C67.8258 32.4162 67.8089 32.3066 67.7668 32.2055C67.7247 32.1044 67.6588 32.0148 67.5745 31.9442C67.3377 31.8032 67.0622 31.7395 66.7868 31.762H66.202L66.199 33.3051ZM76.1915 35.0403H75.9926L75.2168 32.341C75.1505 32.1191 75.1021 31.9373 75.0716 31.7955C75.0458 31.934 75.009 32.0935 74.9612 32.2741C74.9135 32.4546 74.6526 33.3783 74.1785 35.0452H73.9796L73.0079 31.5473H73.2665L73.8851 33.8014L73.9527 34.0535C73.9739 34.131 73.9928 34.2036 74.0094 34.2712C74.026 34.3388 74.0412 34.4045 74.0552 34.4681C74.0691 34.5338 74.0817 34.5971 74.093 34.6582C74.1314 34.4415 74.2136 34.1133 74.3396 33.6734L74.9433 31.5512H75.2168L75.925 33.9876C76.0072 34.2686 76.0659 34.4951 76.101 34.6671C76.1222 34.5522 76.1491 34.4301 76.1816 34.3007C76.2141 34.1714 76.4627 33.2549 76.9275 31.5512H77.1761L76.1915 35.0403ZM82.3579 33.2864C82.3846 33.7625 82.2347 34.2318 81.9362 34.606C81.7856 34.7594 81.6054 34.8813 81.4064 34.9645C81.2074 35.0478 80.9935 35.0906 80.7775 35.0906C80.5615 35.0906 80.3476 35.0478 80.1486 34.9645C79.9496 34.8813 79.7694 34.7594 79.6188 34.606C79.3209 34.2308 79.1713 33.761 79.1981 33.2844C79.1707 32.8095 79.3216 32.3412 79.6218 31.9698C79.7667 31.8095 79.946 31.6833 80.1464 31.6003C80.3469 31.5173 80.5635 31.4797 80.7805 31.4902C80.9977 31.4791 81.2146 31.5167 81.4151 31.6003C81.6155 31.6838 81.7944 31.8112 81.9382 31.9727C82.2381 32.3467 82.3895 32.8164 82.3638 33.2933L82.3579 33.2864ZM79.4676 33.2864C79.441 33.7008 79.5605 34.1116 79.8058 34.4484C79.9321 34.5776 80.0833 34.6803 80.2505 34.7504C80.4177 34.8206 80.5974 34.8567 80.779 34.8567C80.9606 34.8567 81.1403 34.8206 81.3075 34.7504C81.4746 34.6803 81.6259 34.5776 81.7522 34.4484C81.9976 34.1106 82.1168 33.6987 82.0893 33.2835C82.1173 32.8699 81.998 32.4598 81.7522 32.1244C81.6256 31.9962 81.4745 31.8943 81.3076 31.8247C81.1408 31.7552 80.9615 31.7193 80.7805 31.7193C80.5994 31.7193 80.4202 31.7552 80.2533 31.8247C80.0865 31.8943 79.9353 31.9962 79.8088 32.1244C79.5612 32.4619 79.4428 32.8754 79.4746 33.2913L79.4676 33.2864ZM85.0194 33.5228V35.0472H84.7727V31.5463H85.6161C85.9577 31.5203 86.2987 31.6046 86.5878 31.7866C86.6948 31.8736 86.7792 31.9847 86.8338 32.1107C86.8885 32.2366 86.9119 32.3737 86.9021 32.5104C86.9084 32.7225 86.8426 32.9306 86.7151 33.1013C86.5691 33.2755 86.3691 33.3974 86.1462 33.4479L87.106 35.0413H86.8076L85.8986 33.5228H85.0194ZM85.0194 33.312H85.6937C85.9418 33.328 86.1878 33.2584 86.3899 33.1151C86.474 33.0436 86.5401 32.9537 86.5829 32.8525C86.6257 32.7513 86.6441 32.6415 86.6365 32.5321C86.6461 32.4231 86.6292 32.3135 86.5871 32.2124C86.5451 32.1113 86.4791 32.0217 86.3949 31.951C86.158 31.8101 85.8825 31.7464 85.6072 31.7689H85.0194V33.312ZM91.688 35.0472H91.3896L90.033 33.1978L89.5616 33.6094V35.0452H89.3149V31.5463H89.5616V33.3652L89.9534 32.9772L91.3379 31.5463H91.6522L90.2051 33.0235L91.688 35.0472ZM98.7982 32.5537C98.8069 32.7015 98.7799 32.8492 98.7193 32.9845C98.6588 33.1198 98.5665 33.2388 98.4501 33.3317C98.1615 33.5288 97.8144 33.6241 97.4645 33.6025H96.9184V35.0482H96.6718V31.5463H97.5371C98.3791 31.5463 98.8002 31.8815 98.8002 32.5518L98.7982 32.5537ZM96.9184 33.3908H97.4038C97.7048 33.4143 98.0059 33.3455 98.2661 33.1938C98.359 33.1176 98.4317 33.0201 98.4779 32.9097C98.5242 32.7994 98.5426 32.6796 98.5316 32.5606C98.5405 32.4481 98.5223 32.3351 98.4786 32.2308C98.4348 32.1266 98.3668 32.0341 98.28 31.9609C98.0495 31.8128 97.7763 31.7436 97.5023 31.7639H96.9175L96.9184 33.3908ZM102.867 33.8123H101.43L100.933 35.0472H100.659L102.08 31.5345H102.237L103.63 35.0472H103.359L102.867 33.8123ZM101.521 33.5917H102.785L102.304 32.3302C102.264 32.2311 102.215 32.0938 102.159 31.9186C102.12 32.06 102.072 32.1991 102.017 32.3351L101.521 33.5917ZM105.981 33.5228V35.0472H105.736V31.5463H106.578C106.919 31.5203 107.26 31.6046 107.549 31.7866C107.656 31.8736 107.741 31.9847 107.795 32.1107C107.85 32.2366 107.874 32.3737 107.864 32.5104C107.87 32.7226 107.804 32.9307 107.677 33.1013C107.531 33.2755 107.331 33.3974 107.108 33.4479L108.068 35.0413H107.769L106.86 33.5228H105.981ZM105.981 33.312H106.655C106.903 33.328 107.149 33.2584 107.352 33.1151C107.436 33.0436 107.502 32.9537 107.545 32.8525C107.587 32.7513 107.606 32.6415 107.598 32.5321C107.608 32.4231 107.591 32.3135 107.549 32.2124C107.507 32.1113 107.441 32.0217 107.357 31.951C107.12 31.8101 106.844 31.7464 106.569 31.7689H105.984L105.981 33.312ZM111.195 35.0472H110.946V31.7758H109.799V31.5463H112.344V31.7758H111.197L111.195 35.0472ZM117.035 35.0472H116.786L114.697 31.9412H114.679C114.698 32.3115 114.707 32.5905 114.707 32.7783V35.0432H114.471V31.5463H114.717L116.806 34.6474H116.821C116.806 34.3605 116.799 34.0877 116.799 33.829V31.5463H117.039L117.035 35.0472ZM121.565 35.0472H119.631V31.5463H121.561V31.7708H119.882V33.0944H121.473V33.3189H119.882V34.8197H121.567L121.565 35.0472ZM124.212 33.5228V35.0472H123.965V31.5463H124.802C125.144 31.5203 125.485 31.6046 125.774 31.7866C125.881 31.8736 125.965 31.9847 126.02 32.1107C126.075 32.2366 126.098 32.3737 126.088 32.5104C126.095 32.7226 126.029 32.9307 125.901 33.1013C125.755 33.2755 125.555 33.3974 125.332 33.4479L126.294 35.0452H125.996L125.089 33.5228H124.212ZM124.212 33.312H124.886C125.134 33.328 125.38 33.2584 125.582 33.1151C125.666 33.0436 125.732 32.9537 125.775 32.8525C125.818 32.7513 125.836 32.6415 125.829 32.5321C125.838 32.4231 125.821 32.3135 125.779 32.2124C125.737 32.1113 125.671 32.0217 125.587 31.951C125.35 31.8101 125.075 31.7464 124.799 31.7689H124.215L124.212 33.312Z" fill="white"/>
<path d="M133.667 17.202C133.667 16.8816 133.538 16.5743 133.309 16.3476C133.08 16.1209 132.77 15.9933 132.446 15.9928C132.123 15.993 131.812 16.1205 131.583 16.3473C131.354 16.574 131.225 16.8814 131.225 17.202C131.225 17.3608 131.256 17.5181 131.318 17.6648C131.379 17.8115 131.469 17.9448 131.582 18.0571C131.696 18.1694 131.83 18.2585 131.978 18.3193C132.126 18.3801 132.285 18.4114 132.445 18.4114C132.606 18.4115 132.765 18.3802 132.913 18.3194C133.061 18.2586 133.196 18.1694 133.309 18.0569C133.344 18.0211 133.377 17.9833 133.408 17.9436C133.575 17.7315 133.665 17.4706 133.665 17.202H133.667ZM131.901 17.8215V16.5413H132.566C132.661 16.5378 132.756 16.5484 132.848 16.5728C132.912 16.5931 132.967 16.634 133.004 16.689C133.046 16.7499 133.067 16.8223 133.064 16.8958C133.066 16.9578 133.051 17.0192 133.021 17.0735C132.991 17.1278 132.946 17.1729 132.892 17.204C132.848 17.2278 132.802 17.2448 132.753 17.2543C132.788 17.2654 132.822 17.2813 132.852 17.3015C132.876 17.3214 132.897 17.3439 132.916 17.3685C132.937 17.3931 132.956 17.4198 132.972 17.4482L133.165 17.8185H132.712L132.499 17.4246C132.482 17.3871 132.457 17.3536 132.426 17.3262C132.397 17.3062 132.363 17.2958 132.327 17.2966H132.292V17.8146H131.894L131.901 17.8215ZM132.299 17.0622H132.467C132.503 17.0594 132.538 17.0534 132.573 17.0445C132.599 17.0395 132.622 17.0251 132.637 17.0041C132.654 16.9831 132.663 16.957 132.662 16.9302C132.664 16.9119 132.661 16.8934 132.654 16.8763C132.647 16.8592 132.636 16.8439 132.622 16.8318C132.578 16.8048 132.525 16.793 132.473 16.7983H132.298V17.0573L132.299 17.0622ZM133.997 17.202C133.997 17.5439 133.882 17.876 133.67 18.1455C133.63 18.1959 133.587 18.2439 133.541 18.2892C133.251 18.5768 132.858 18.7387 132.447 18.7393C132.036 18.7393 131.641 18.5773 131.35 18.2891C131.058 18.0008 130.895 17.6097 130.895 17.202C130.895 17.0001 130.935 16.8002 131.013 16.6137C131.091 16.4271 131.205 16.2576 131.349 16.1148C131.494 15.972 131.665 15.8588 131.853 15.7816C132.042 15.7043 132.243 15.6647 132.447 15.6648C132.651 15.6646 132.853 15.7042 133.042 15.7813C133.231 15.8585 133.402 15.9716 133.546 16.1144C133.69 16.2572 133.805 16.4268 133.883 16.6134C133.961 16.8 134.001 17 134.001 17.202H133.997Z" fill="white"/>
</g>
<defs>
<linearGradient id="paint0_linear_1433_16005" x1="25.438" y1="25.7125" x2="41.4725" y2="25.7125" gradientUnits="userSpaceOnUse">
<stop stop-color="#6ABDBD"/>
<stop offset="1" stop-color="#117F7C"/>
</linearGradient>
<linearGradient id="paint1_linear_1433_16005" x1="28.8687" y1="30.5148" x2="35.587" y2="30.5148" gradientUnits="userSpaceOnUse">
<stop stop-color="#579D9E"/>
<stop offset="1" stop-color="#00615E"/>
</linearGradient>
<linearGradient id="paint2_linear_1433_16005" x1="30.3288" y1="25.7132" x2="44.6798" y2="22.163" gradientUnits="userSpaceOnUse">
<stop stop-color="#6ABDBD"/>
<stop offset="1" stop-color="#117F7C"/>
</linearGradient>
<linearGradient id="paint3_linear_1433_16005" x1="26.1029" y1="11.6293" x2="23.134" y2="35.327" gradientUnits="userSpaceOnUse">
<stop stop-color="#FF0077"/>
<stop offset="1" stop-color="#C60264"/>
</linearGradient>
<linearGradient id="paint4_linear_1433_16005" x1="123.132" y1="30.1659" x2="138.299" y2="30.1659" gradientUnits="userSpaceOnUse">
<stop stop-color="#FF0077"/>
<stop offset="1" stop-color="#C60264"/>
</linearGradient>
<linearGradient id="paint5_linear_1433_16005" x1="19.9702" y1="21.2525" x2="26.9024" y2="21.2525" gradientUnits="userSpaceOnUse">
<stop stop-color="#FF0077"/>
<stop offset="1" stop-color="#79003B"/>
</linearGradient>
<linearGradient id="paint6_linear_1433_16005" x1="0.163275" y1="9.6004" x2="10.0493" y2="19.6079" gradientUnits="userSpaceOnUse">
<stop stop-color="#A7C62A"/>
<stop offset="1" stop-color="#6F8200"/>
</linearGradient>
<linearGradient id="paint7_linear_1433_16005" x1="9.27943" y1="27.2785" x2="8.62499" y2="38.7861" gradientUnits="userSpaceOnUse">
<stop offset="0.004" stop-color="#718B32"/>
<stop offset="1" stop-color="#3C4E1F"/>
</linearGradient>
<linearGradient id="paint8_linear_1433_16005" x1="4.38729" y1="8.8911" x2="12.2741" y2="31.9303" gradientUnits="userSpaceOnUse">
<stop stop-color="#A7C62A"/>
<stop offset="1" stop-color="#6F8200"/>
</linearGradient>
<linearGradient id="paint9_linear_1433_16005" x1="14.7992" y1="8.96698" x2="18.575" y2="32.6266" gradientUnits="userSpaceOnUse">
<stop stop-color="#FDA037"/>
<stop offset="1" stop-color="#C96400"/>
</linearGradient>
<linearGradient id="paint10_linear_1433_16005" x1="3.44285" y1="14.272" x2="46.824" y2="38.254" gradientUnits="userSpaceOnUse">
<stop stop-color="#FDA037"/>
<stop offset="1" stop-color="#C96400"/>
</linearGradient>
<clipPath id="clip0_1433_16005">
<rect width="134" height="37" fill="white"/>
</clipPath>
</defs>
</svg>
