<svg width="135" height="109" viewBox="0 0 135 109" fill="none" xmlns="http://www.w3.org/2000/svg">
<g clip-path="url(#clip0_1443_2539)">
<path d="M54.6034 104.358C54.6034 101.058 49.8311 101.414 49.8311 99.8608C49.8311 98.7284 51.8532 98.4696 52.9209 98.4696C53.0725 98.4701 53.2238 98.4809 53.3739 98.502C53.6489 98.2108 53.7783 97.224 53.7783 96.9166C53.7775 96.8837 53.772 96.851 53.7621 96.8195C53.5281 96.7679 53.2894 96.7408 53.0498 96.7387C49.1349 96.7387 47.5334 98.5345 47.5334 99.877C47.5334 102.756 52.4027 102.465 52.4027 104.439C52.4027 105.507 51.2056 106.396 49.8305 106.396C49.7173 106.396 49.3614 106.38 49.2158 106.235C48.8114 105.83 48.8114 103.921 48.8114 103.921C48.099 103.921 47.2907 104.326 47.2422 104.487C47.1907 105.063 47.1694 105.641 47.1782 106.218C47.1782 107.109 47.2106 108.03 47.3238 108.143C47.3238 108.143 47.7444 108.273 49.1033 108.273C52.3225 108.273 54.6034 106.493 54.6034 104.358ZM60.4434 102.594C60.4434 103.678 59.0199 104.649 58.3404 104.665C58.2757 104.665 58.2757 104.617 58.2757 104.439C58.2757 103.161 59.0684 102.125 59.9419 102.125C60.0066 102.119 60.072 102.126 60.1336 102.147C60.1951 102.168 60.2516 102.202 60.299 102.246C60.3465 102.291 60.384 102.345 60.4089 102.405C60.4338 102.465 60.4456 102.529 60.4434 102.594ZM59.7311 108.111C61.3008 108.111 61.8508 107.739 61.8508 107.739C62.1582 107.351 62.2553 106.671 62.2553 106.283C62.2553 106.186 62.2391 105.975 62.2067 105.975C62.1945 105.977 62.1831 105.983 62.1744 105.992C61.6729 106.299 60.9288 106.428 60.2331 106.428C59.3919 106.428 59.0522 106.089 59.0522 105.992C61.1229 105.279 62.3362 103.808 62.3362 102.433C62.3362 100.993 61.0582 100.669 60.2978 100.669C57.6772 100.669 56.383 102.594 56.383 104.698C56.383 106.59 57.4669 108.111 59.7316 108.111H59.7311ZM66.2019 101.058C66.2019 99.8444 66.2504 97.0943 66.2828 96.8516C66.2828 96.8193 66.0239 96.7869 65.8783 96.7869C65.296 96.7869 64.3577 97.1431 64.3577 97.3693C64.3577 97.5474 64.4224 97.9516 64.4224 99.5855C64.4224 102.158 64.3577 103.792 64.3577 105.442C64.3577 106.234 64.3577 106.881 64.3739 107.14C64.4709 108.143 64.8107 108.564 64.8754 108.564C65.5548 108.564 66.6712 107.884 66.6712 107.69C66.4018 107.309 66.2398 106.862 66.202 106.396C66.1697 106.137 66.1697 105.636 66.1697 105.021C66.1701 103.484 66.2025 102.271 66.2025 101.058H66.2019ZM70.6182 101.058C70.6182 99.8444 70.6668 97.0943 70.6991 96.8516C70.6991 96.8193 70.4403 96.7869 70.2947 96.7869C69.7123 96.7869 68.774 97.1431 68.774 97.3693C68.774 97.5474 68.8388 97.9516 68.8388 99.5855C68.8388 102.158 68.774 103.792 68.774 105.442C68.774 106.234 68.774 106.881 68.7902 107.14C68.8873 108.143 69.227 108.564 69.2917 108.564C69.9712 108.564 71.0875 107.884 71.0875 107.69C70.8181 107.309 70.6561 106.862 70.6184 106.396C70.586 106.137 70.586 105.636 70.586 105.021C70.5865 103.484 70.6188 102.271 70.6188 101.058H70.6182ZM76.9273 102.594C76.9273 103.678 75.5037 104.649 74.8243 104.665C74.7596 104.665 74.7596 104.617 74.7596 104.439C74.7596 103.161 75.5523 102.125 76.4258 102.125C76.4906 102.119 76.556 102.126 76.6176 102.147C76.6793 102.168 76.7358 102.202 76.7833 102.246C76.8308 102.29 76.8683 102.344 76.8933 102.405C76.9182 102.465 76.93 102.529 76.9279 102.594H76.9273ZM76.2149 108.111C77.7856 108.111 78.3347 107.739 78.3347 107.739C78.6421 107.351 78.7391 106.671 78.7391 106.283C78.7391 106.186 78.723 105.975 78.6906 105.975C78.6783 105.977 78.667 105.983 78.6583 105.992C78.1568 106.299 77.4126 106.428 76.717 106.428C75.8758 106.428 75.5361 106.089 75.5361 105.992C77.6067 105.279 78.82 103.808 78.82 102.433C78.82 100.993 77.542 100.669 76.7817 100.669C74.161 100.669 72.8669 102.594 72.8669 104.698C72.8674 106.59 73.9513 108.111 76.2161 108.111H76.2149ZM85.3064 101.333C85.3163 101.12 85.2718 100.908 85.177 100.718C83.6726 100.718 82.7666 102.012 82.7666 102.012C82.7343 102.044 82.7181 102.044 82.7019 102.044C82.6696 102.044 82.6696 101.705 82.6696 101.672C82.6696 101.252 82.7019 100.637 82.7181 100.491C82.7181 100.443 82.524 100.411 82.3784 100.411C81.796 100.411 81.1328 100.637 80.9063 100.864C80.8577 100.912 80.8416 101.3 80.8416 101.883C80.8416 102.821 80.8739 104.261 80.8739 105.555C80.8739 106.606 80.8577 107.577 80.7607 108.111C80.7607 108.159 80.8254 108.159 80.8901 108.159C81.3107 108.159 82.2813 108.095 82.6696 107.723C82.7181 107.674 82.7181 106.655 82.7181 105.733V104.309C82.8416 103.855 83.1151 103.456 83.4941 103.177C83.873 102.898 84.3353 102.755 84.8056 102.772C84.8763 102.779 84.9465 102.79 85.0159 102.805C85.0159 102.805 85.3076 102.417 85.3076 101.333H85.3064Z" fill="url(#paint0_linear_1443_2539)"/>
<path d="M8.3849 75.3715C8.74693 76.7192 9.38016 77.6728 10.2846 78.2322C11.189 78.7916 12.3809 79.0712 13.8603 79.0709C14.9375 79.0579 16.0109 78.9422 17.0661 78.7255C18.2636 78.4914 19.4363 78.1446 20.5686 77.6897C21.0767 78.664 21.4818 79.6887 21.7773 80.7471C22.1256 81.9504 22.3163 83.194 22.3446 84.4464C19.4735 85.5219 16.4329 86.0736 13.367 86.0753C10.9994 86.0753 8.96891 85.7465 7.27551 85.089C5.58211 84.4316 4.20102 83.5186 3.13224 82.3501C2.04611 81.1523 1.23772 79.7295 0.764743 78.1834C0.240761 76.4737 -0.0168851 74.6936 0.000857652 72.9056C-0.0122602 71.1159 0.253725 69.3352 0.789232 67.6274C1.27809 66.0508 2.08382 64.5906 3.15702 63.3363C4.2428 62.0949 5.59013 61.1095 7.10216 60.4509C8.68049 59.7439 10.522 59.3905 12.6266 59.3905C14.3693 59.3905 15.9231 59.6863 17.2878 60.2781C18.6062 60.8374 19.7913 61.6694 20.7651 62.7194C21.7476 63.8041 22.495 65.0805 22.9602 66.4682C23.4809 68.0004 23.7391 69.6096 23.7241 71.2278C23.7287 72.0269 23.6875 72.8256 23.6006 73.6199C23.5183 74.3269 23.4441 74.9106 23.378 75.3712L8.3849 75.3715ZM12.3312 65.6544C11.3356 65.6338 10.3681 65.9856 9.61837 66.6411C8.86205 67.2986 8.41815 68.3179 8.28665 69.6988H16.1786C16.1128 68.5481 15.759 67.5864 15.1174 66.8135C14.4758 66.0407 13.547 65.6543 12.3312 65.6544ZM41.7765 63.8289C43.1576 64.388 44.3989 64.9552 45.5005 65.5305C46.5497 66.0673 47.5073 66.7668 48.3379 67.6029C49.1436 68.4344 49.7655 69.4258 50.1634 70.513C50.5908 71.6474 50.8045 73.0203 50.8045 74.6318C50.8293 76.2481 50.5186 77.8519 49.8919 79.3419C49.2873 80.7342 48.3669 81.9667 47.2037 82.9419C46.0199 83.9448 44.5648 84.7176 42.8386 85.2602C41.1123 85.8028 39.1311 86.0741 36.895 86.0741C35.0826 86.0954 33.2727 85.9302 31.4941 85.5809C29.7718 85.2039 28.0816 84.6928 26.439 84.0522C26.587 82.8134 26.8177 81.5858 27.1296 80.3778C27.4583 79.079 27.8527 77.7555 28.3127 76.4073C31.3382 77.7223 33.9688 78.3799 36.2046 78.3799C37.8821 78.3799 39.1892 78.1252 40.1259 77.616C41.0625 77.1067 41.5316 76.2269 41.533 74.9764C41.5453 74.5071 41.4435 74.0418 41.2361 73.6205C41.0435 73.2481 40.7747 72.9203 40.447 72.6587C40.1077 72.3893 39.7347 72.1654 39.3373 71.9927C38.9262 71.8119 38.5069 71.6392 38.0792 71.4748L35.3171 70.439C34.1915 70.0393 33.1091 69.5271 32.0863 68.9103C31.1504 68.3471 30.3096 67.6393 29.5952 66.8131C28.8947 65.9901 28.3514 65.0455 27.9923 64.0262C27.6143 62.9739 27.4253 61.7407 27.4253 60.3267C27.4253 58.5839 27.7212 57.0384 28.313 55.6902C28.879 54.3772 29.7295 53.2062 30.8031 52.2618C31.9312 51.2919 33.2503 50.5694 34.6751 50.141C36.3221 49.6448 38.0354 49.4036 39.7554 49.4258C41.3876 49.4212 43.0159 49.5865 44.6139 49.919C46.312 50.2867 47.9844 50.7646 49.6203 51.3498C49.4639 52.5243 49.2249 53.6863 48.9051 54.8272C48.574 56.0551 48.1366 57.2518 47.598 58.404C46.7431 58.0422 45.7402 57.6641 44.5893 57.2695C43.4384 56.8749 42.0079 56.6777 40.298 56.6778C39.7928 56.6758 39.2888 56.7256 38.7937 56.8262C38.3444 56.9147 37.9118 57.0728 37.5113 57.2947C37.1351 57.5063 36.8204 57.8123 36.5984 58.1824C36.3555 58.61 36.2359 59.0966 36.253 59.5881C36.253 60.5421 36.5654 61.249 37.1901 61.709C37.8738 62.2008 38.6203 62.5987 39.4098 62.8921L41.7765 63.8289ZM71.224 76.0618H63.9239V85.4334C63.0689 85.5649 62.2962 85.6635 61.6056 85.7292C60.9151 85.7949 60.2903 85.8277 59.7313 85.8277C59.1722 85.8277 58.5474 85.7949 57.857 85.7292C57.1666 85.6635 56.4103 85.5649 55.588 85.4334V59.9823C56.295 59.8205 57.0117 59.7052 57.7337 59.637C58.4406 59.5713 59.1229 59.5384 59.7806 59.5384C60.4054 59.5384 61.0794 59.5713 61.8026 59.637C62.5169 59.7013 63.2256 59.8167 63.9234 59.9823V68.6631H71.2233V59.982C71.9302 59.8202 72.6469 59.7049 73.3689 59.6367C74.0759 59.571 74.7582 59.5381 75.4158 59.5381C76.0406 59.5381 76.7146 59.571 77.4378 59.6367C78.1521 59.701 78.8609 59.8164 79.5587 59.982V85.4334C78.7037 85.5649 77.931 85.6635 77.2404 85.7292C76.5499 85.7949 75.9251 85.8275 75.3661 85.8271C74.807 85.8271 74.1822 85.7943 73.4918 85.7286C72.8014 85.6629 72.0452 85.5643 71.2233 85.4328L71.224 76.0618ZM83.8509 72.856C83.8297 70.9914 84.1044 69.1353 84.6648 67.3567C85.1599 65.7797 85.9837 64.3256 87.0819 63.0903C88.179 61.8866 89.5372 60.9501 91.0523 60.3525C92.6306 59.7111 94.4558 59.3905 96.5278 59.3905C98.6323 59.3905 100.474 59.7111 102.052 60.3523C103.567 60.9498 104.925 61.8862 106.023 63.0898C107.121 64.3253 107.944 65.7795 108.439 67.3566C109 69.1354 109.274 70.9919 109.253 72.8568C109.275 74.6892 109 76.513 108.439 78.2577C107.94 79.8107 107.116 81.2399 106.022 82.4503C104.922 83.6385 103.564 84.558 102.052 85.1376C100.473 85.7627 98.632 86.0753 96.5278 86.0753C94.4563 86.0753 92.6313 85.7628 91.0529 85.138C89.5407 84.5582 88.1822 83.6384 87.0823 82.4498C85.9886 81.2392 85.1647 79.8099 84.6654 78.2567C84.105 76.5122 83.8303 74.6885 83.8518 72.8563L83.8509 72.856ZM100.818 72.856C100.818 70.7516 100.465 69.1403 99.7581 68.0221C99.0511 66.9038 97.9744 66.3446 96.5278 66.3444C95.081 66.3444 94.0124 66.9034 93.3221 68.0215C92.6318 69.1395 92.2865 70.7511 92.2863 72.8563C92.2863 74.9279 92.6316 76.5227 93.3221 77.6408C94.0126 78.7588 95.0812 79.3178 96.5278 79.3178C97.9748 79.3178 99.0517 78.7588 99.7587 77.6408C100.466 76.5227 100.819 74.9277 100.818 72.8557V72.856ZM121.682 73.1518C121.886 73.1896 122.092 73.2144 122.299 73.226C122.546 73.2425 122.751 73.2507 122.915 73.2508C124.066 73.2508 125.012 72.9631 125.752 72.3876C126.491 71.8122 126.861 70.834 126.861 69.4529C126.861 68.2691 126.491 67.3566 125.752 66.7154C125.012 66.0743 124.099 65.7537 123.015 65.7537H122.447C122.192 65.754 121.937 65.7701 121.684 65.8019L121.682 73.1518ZM113.545 60.0809C115.057 59.8512 116.611 59.679 118.206 59.5641C119.801 59.4492 121.338 59.3916 122.818 59.3913C124.307 59.3892 125.794 59.5297 127.257 59.8108C128.642 60.0658 129.964 60.5848 131.153 61.3394C132.327 62.1048 133.287 63.1575 133.94 64.3976C134.647 65.6965 135 67.3819 135 69.454C135 71.3283 134.68 72.9065 134.038 74.1884C133.448 75.4093 132.577 76.4739 131.498 77.2957C130.43 78.0926 129.215 78.6709 127.922 78.9974C126.593 79.3423 125.226 79.5164 123.853 79.5154C123.294 79.5154 122.817 79.4989 122.422 79.4661C122.173 79.4545 121.926 79.4215 121.682 79.3674V85.4341C120.925 85.5851 120.159 85.6922 119.389 85.7548C118.715 85.8043 118.115 85.829 117.589 85.829C117.03 85.829 116.429 85.8043 115.788 85.7548C115.035 85.6895 114.286 85.5823 113.545 85.4337L113.545 60.0809Z" fill="url(#paint1_linear_1443_2539)"/>
<path d="M121.683 1.2765V42.6005C121.683 42.7631 121.651 42.924 121.589 43.0742C121.527 43.2243 121.436 43.3607 121.321 43.4757C121.206 43.5906 121.069 43.6818 120.919 43.744C120.769 43.8062 120.608 43.8382 120.446 43.8382H114.015L111.945 47.5619V24.9026V7.70148L111.939 7.70519L100.179 15.3721L95.4416 12.2833L95.1137 12.0711L90.6952 9.19052L88.4013 7.69495V32.4355L95.4409 36.6524V20.6852L100.177 23.7722L104.905 20.6901V43.8382H79.1204C78.7922 43.838 78.4775 43.7076 78.2454 43.4755C78.0134 43.2435 77.8829 42.9287 77.8828 42.6005V1.2765C77.8828 1.11397 77.9148 0.953039 77.977 0.802884C78.0392 0.652728 78.1304 0.516296 78.2453 0.401372C78.3602 0.286448 78.4967 0.195284 78.6468 0.133088C78.797 0.0708914 78.9579 0.0388798 79.1204 0.0388798H120.445C120.608 0.0387433 120.769 0.0706572 120.919 0.132798C121.069 0.194939 121.206 0.286089 121.321 0.401032C121.436 0.515976 121.527 0.65246 121.589 0.80268C121.651 0.9529 121.683 1.11391 121.683 1.2765Z" fill="url(#paint2_linear_1443_2539)"/>
</g>
<defs>
<linearGradient id="paint0_linear_1443_2539" x1="47.1763" y1="96.7387" x2="53.8671" y2="118.314" gradientUnits="userSpaceOnUse">
<stop stop-color="#FFBD69"/>
<stop offset="1" stop-color="#FF6363"/>
</linearGradient>
<linearGradient id="paint1_linear_1443_2539" x1="0" y1="49.4244" x2="18.535" y2="117.695" gradientUnits="userSpaceOnUse">
<stop stop-color="#FFBD69"/>
<stop offset="1" stop-color="#FF6363"/>
</linearGradient>
<linearGradient id="paint2_linear_1443_2539" x1="77.8828" y1="0.0388794" x2="125.248" y2="43.6939" gradientUnits="userSpaceOnUse">
<stop stop-color="#FFBD69"/>
<stop offset="1" stop-color="#FF6363"/>
</linearGradient>
<clipPath id="clip0_1443_2539">
<rect width="135" height="108.525" fill="white" transform="translate(0 0.0388794)"/>
</clipPath>
</defs>
</svg>
