<svg width="24" height="24" viewBox="0 0 24 24" fill="none" xmlns="http://www.w3.org/2000/svg">
<path d="M18 22.75H6C4.74071 22.7484 3.53345 22.2475 2.643 21.357C1.75254 20.4666 1.25159 19.2593 1.25 18V6C1.25159 4.74071 1.75254 3.53345 2.643 2.643C3.53345 1.75254 4.74071 1.25159 6 1.25H18C19.2593 1.25159 20.4666 1.75254 21.357 2.643C22.2475 3.53345 22.7484 4.74071 22.75 6V18C22.7484 19.2593 22.2475 20.4666 21.357 21.357C20.4666 22.2475 19.2593 22.7484 18 22.75ZM6 2.75C5.13837 2.75106 4.31234 3.09381 3.70307 3.70307C3.09381 4.31234 2.75106 5.13837 2.75 6V18C2.75106 18.8616 3.09381 19.6877 3.70307 20.2969C4.31234 20.9062 5.13837 21.2489 6 21.25H18C18.8616 21.2489 19.6877 20.9062 20.2969 20.2969C20.9062 19.6877 21.2489 18.8616 21.25 18V6C21.2489 5.13837 20.9062 4.31234 20.2969 3.70307C19.6877 3.09381 18.8616 2.75106 18 2.75H6Z" fill="#FF7C65"/>
<path d="M12 16.75C11.8011 16.75 11.6103 16.671 11.4697 16.5303C11.329 16.3897 11.25 16.1989 11.25 16V8C11.25 7.80109 11.329 7.61032 11.4697 7.46967C11.6103 7.32902 11.8011 7.25 12 7.25C12.1989 7.25 12.3897 7.32902 12.5303 7.46967C12.671 7.61032 12.75 7.80109 12.75 8V16C12.75 16.1989 12.671 16.3897 12.5303 16.5303C12.3897 16.671 12.1989 16.75 12 16.75Z" fill="#FF7C65"/>
<path d="M16 12.75H8C7.80109 12.75 7.61032 12.671 7.46967 12.5303C7.32902 12.3897 7.25 12.1989 7.25 12C7.25 11.8011 7.32902 11.6103 7.46967 11.4697C7.61032 11.329 7.80109 11.25 8 11.25H16C16.1989 11.25 16.3897 11.329 16.5303 11.4697C16.671 11.6103 16.75 11.8011 16.75 12C16.75 12.1989 16.671 12.3897 16.5303 12.5303C16.3897 12.671 16.1989 12.75 16 12.75Z" fill="#FF7C65"/>
</svg>
