<svg width="24" height="24" viewBox="0 0 24 24" fill="none" xmlns="http://www.w3.org/2000/svg">
<path d="M21.2401 21.8L20.1101 18.8H15.0101L13.8901 21.8H12.4201L16.7301 10.3H18.3801L22.6901 21.8H21.2201H21.2401ZM15.5901 17.3H19.5501L17.5701 12.01L15.5901 17.3ZM3.01007 17.63L8.09007 12.62L7.93007 12.44C6.80007 11.18 5.86007 9.79 5.15007 8.3H6.61007C7.23007 9.48 8.00007 10.58 8.89007 11.57L9.08007 11.78L9.27007 11.57C10.7101 9.97 11.7901 8.14 12.4901 6.13L12.6101 5.8H1.32007V4.31H8.32007V2.3H9.82007V4.3H16.8201V5.8H13.9601L13.9101 5.98C13.1701 8.37 11.9401 10.53 10.2501 12.42L10.0901 12.6L10.2301 12.8L12.6601 15.2L12.0901 16.72L9.08007 13.71L4.08007 18.71L3.01007 17.64V17.63Z" fill="#FF7C65"/>
</svg>
