<svg width="24" height="24" viewBox="0 0 24 24" fill="none" xmlns="http://www.w3.org/2000/svg">
<path d="M8.514 22.634C8.21364 22.633 7.91638 22.5732 7.639 22.458C7.22512 22.2915 6.87111 22.004 6.62328 21.6331C6.37546 21.2622 6.24536 20.8251 6.25 20.379V19.757C6.24947 19.4899 6.14307 19.2339 5.95412 19.0452C5.76517 18.8564 5.50908 18.7503 5.242 18.75H4C3.2709 18.7492 2.57189 18.4592 2.05633 17.9437C1.54078 17.4281 1.25079 16.7291 1.25 16V4C1.25079 3.2709 1.54078 2.57189 2.05633 2.05633C2.57189 1.54078 3.2709 1.25079 4 1.25H20C20.7291 1.25079 21.4281 1.54078 21.9437 2.05633C22.4592 2.57189 22.7492 3.2709 22.75 4V16C22.7492 16.7291 22.4592 17.4281 21.9437 17.9437C21.4281 18.4592 20.7291 18.7492 20 18.75H13.728C13.4612 18.7503 13.2053 18.856 13.016 19.044L10.091 21.97C9.8851 22.1795 9.6397 22.346 9.36901 22.46C9.09832 22.5739 8.80771 22.6331 8.514 22.634ZM4 2.75C3.66864 2.75053 3.35101 2.88239 3.1167 3.1167C2.88239 3.35101 2.75053 3.66864 2.75 4V16C2.75053 16.3314 2.88239 16.649 3.1167 16.8833C3.35101 17.1176 3.66864 17.2495 4 17.25H5.242C5.90675 17.2508 6.54405 17.5151 7.01419 17.9851C7.48433 18.4551 7.74894 19.0923 7.75 19.757V20.379C7.75013 20.5272 7.79419 20.6721 7.87661 20.7953C7.95903 20.9185 8.07611 21.0146 8.21308 21.0713C8.35004 21.128 8.50074 21.1429 8.64614 21.114C8.79154 21.0851 8.92511 21.0138 9.03 20.909L11.955 17.984C12.4264 17.5155 13.0634 17.2518 13.728 17.25H20C20.3314 17.2495 20.649 17.1176 20.8833 16.8833C21.1176 16.649 21.2495 16.3314 21.25 16V4C21.2495 3.66864 21.1176 3.35101 20.8833 3.1167C20.649 2.88239 20.3314 2.75053 20 2.75H4Z" fill="#FF7C65"/>
<path d="M17 8.75H7C6.80109 8.75 6.61032 8.67098 6.46967 8.53033C6.32902 8.38968 6.25 8.19891 6.25 8C6.25 7.80109 6.32902 7.61032 6.46967 7.46967C6.61032 7.32902 6.80109 7.25 7 7.25H17C17.1989 7.25 17.3897 7.32902 17.5303 7.46967C17.671 7.61032 17.75 7.80109 17.75 8C17.75 8.19891 17.671 8.38968 17.5303 8.53033C17.3897 8.67098 17.1989 8.75 17 8.75Z" fill="#FF7C65"/>
<path d="M13 12.75H7C6.80109 12.75 6.61032 12.671 6.46967 12.5303C6.32902 12.3897 6.25 12.1989 6.25 12C6.25 11.8011 6.32902 11.6103 6.46967 11.4697C6.61032 11.329 6.80109 11.25 7 11.25H13C13.1989 11.25 13.3897 11.329 13.5303 11.4697C13.671 11.6103 13.75 11.8011 13.75 12C13.75 12.1989 13.671 12.3897 13.5303 12.5303C13.3897 12.671 13.1989 12.75 13 12.75Z" fill="#FF7C65"/>
</svg>
