<svg width="24" height="24" viewBox="0 0 24 24" fill="none" xmlns="http://www.w3.org/2000/svg">
<path d="M6 19.75H4C3.27082 19.7495 2.57165 19.4596 2.05604 18.944C1.54043 18.4283 1.25053 17.7292 1.25 17V14C1.25053 13.2708 1.54043 12.5717 2.05604 12.056C2.57165 11.5404 3.27082 11.2505 4 11.25H6C6.72918 11.2505 7.42835 11.5404 7.94396 12.056C8.45957 12.5717 8.74947 13.2708 8.75 14V17C8.74947 17.7292 8.45957 18.4283 7.94396 18.944C7.42835 19.4596 6.72918 19.7495 6 19.75ZM4 12.75C3.66864 12.7505 3.35101 12.8824 3.1167 13.1167C2.88239 13.351 2.75053 13.6686 2.75 14V17C2.75053 17.3314 2.88239 17.649 3.1167 17.8833C3.35101 18.1176 3.66864 18.2495 4 18.25H6C6.33136 18.2495 6.64899 18.1176 6.8833 17.8833C7.11761 17.649 7.24947 17.3314 7.25 17V14C7.24947 13.6686 7.11761 13.351 6.8833 13.1167C6.64899 12.8824 6.33136 12.7505 6 12.75H4Z" fill="#FF7C65"/>
<path d="M20 19.75H18C17.2708 19.7495 16.5717 19.4596 16.056 18.944C15.5404 18.4283 15.2505 17.7292 15.25 17V14C15.2505 13.2708 15.5404 12.5717 16.056 12.056C16.5717 11.5404 17.2708 11.2505 18 11.25H20C20.7292 11.2505 21.4283 11.5404 21.944 12.056C22.4596 12.5717 22.7495 13.2708 22.75 14V17C22.7495 17.7292 22.4596 18.4283 21.944 18.944C21.4283 19.4596 20.7292 19.7495 20 19.75ZM18 12.75C17.6686 12.7505 17.351 12.8824 17.1167 13.1167C16.8824 13.351 16.7505 13.6686 16.75 14V17C16.7505 17.3314 16.8824 17.649 17.1167 17.8833C17.351 18.1176 17.6686 18.2495 18 18.25H20C20.3314 18.2495 20.649 18.1176 20.8833 17.8833C21.1176 17.649 21.2495 17.3314 21.25 17V14C21.2495 13.6686 21.1176 13.351 20.8833 13.1167C20.649 12.8824 20.3314 12.7505 20 12.75H18Z" fill="#FF7C65"/>
<path d="M9 22.75H7C6.27082 22.7495 5.57165 22.4596 5.05604 21.944C4.54043 21.4283 4.25053 20.7292 4.25 20V19C4.25 18.8011 4.32902 18.6103 4.46967 18.4697C4.61032 18.329 4.80109 18.25 5 18.25C5.19891 18.25 5.38968 18.329 5.53033 18.4697C5.67098 18.6103 5.75 18.8011 5.75 19V20C5.75053 20.3314 5.88239 20.649 6.1167 20.8833C6.35101 21.1176 6.66864 21.2495 7 21.25H9C9.19891 21.25 9.38968 21.329 9.53033 21.4697C9.67098 21.6103 9.75 21.8011 9.75 22C9.75 22.1989 9.67098 22.3897 9.53033 22.5303C9.38968 22.671 9.19891 22.75 9 22.75Z" fill="#FF7C65"/>
<path d="M19 12.75C18.8011 12.75 18.6103 12.671 18.4697 12.5303C18.329 12.3897 18.25 12.1989 18.25 12V9C18.25 7.3424 17.5915 5.75268 16.4194 4.58058C15.2473 3.40848 13.6576 2.75 12 2.75C10.3424 2.75 8.75269 3.40848 7.58058 4.58058C6.40848 5.75268 5.75 7.3424 5.75 9V12C5.75 12.1989 5.67098 12.3897 5.53033 12.5303C5.38968 12.671 5.19891 12.75 5 12.75C4.80109 12.75 4.61032 12.671 4.46967 12.5303C4.32902 12.3897 4.25 12.1989 4.25 12V9C4.25 6.94457 5.06652 4.97333 6.51992 3.51992C7.97333 2.06651 9.94457 1.25 12 1.25C14.0554 1.25 16.0267 2.06651 17.4801 3.51992C18.9335 4.97333 19.75 6.94457 19.75 9V12C19.75 12.1989 19.671 12.3897 19.5303 12.5303C19.3897 12.671 19.1989 12.75 19 12.75Z" fill="#FF7C65"/>
</svg>
