<svg width="24" height="24" viewBox="0 0 24 24" fill="none" xmlns="http://www.w3.org/2000/svg">
<path d="M15.75 7.5H8.25C8.05109 7.5 7.86032 7.42098 7.71967 7.28033C7.57902 7.13968 7.5 6.94891 7.5 6.75V4.5C7.5 3.90326 7.73705 3.33097 8.15901 2.90901C8.58097 2.48705 9.15326 2.25 9.75 2.25H14.25C14.8467 2.25 15.419 2.48705 15.841 2.90901C16.2629 3.33097 16.5 3.90326 16.5 4.5V6.75C16.5 6.94891 16.421 7.13968 16.2803 7.28033C16.1397 7.42098 15.9489 7.5 15.75 7.5ZM9 6H15V4.5C15 4.30109 14.921 4.11032 14.7803 3.96967C14.6397 3.82902 14.4489 3.75 14.25 3.75H9.75C9.55109 3.75 9.36032 3.82902 9.21967 3.96967C9.07902 4.11032 9 4.30109 9 4.5V6Z" fill="#FF7C65"/>
<path d="M19.5 7.5H4.5C4.30109 7.5 4.11032 7.42098 3.96967 7.28033C3.82902 7.13968 3.75 6.94891 3.75 6.75C3.75 6.55109 3.82902 6.36032 3.96967 6.21967C4.11032 6.07902 4.30109 6 4.5 6H19.5C19.6989 6 19.8897 6.07902 20.0303 6.21967C20.171 6.36032 20.25 6.55109 20.25 6.75C20.25 6.94891 20.171 7.13968 20.0303 7.28033C19.8897 7.42098 19.6989 7.5 19.5 7.5Z" fill="#FF7C65"/>
<path d="M15 21.75H9C8.0058 21.7488 7.05267 21.3533 6.34966 20.6503C5.64666 19.9473 5.25119 18.9942 5.25 18V6.75C5.25 6.55109 5.32902 6.36032 5.46967 6.21967C5.61032 6.07902 5.80109 6 6 6H18C18.1989 6 18.3897 6.07902 18.5303 6.21967C18.671 6.36032 18.75 6.55109 18.75 6.75V18C18.7488 18.9942 18.3533 19.9473 17.6503 20.6503C16.9473 21.3533 15.9942 21.7488 15 21.75ZM6.75 7.5V18C6.75 18.5967 6.98705 19.169 7.40901 19.591C7.83097 20.0129 8.40326 20.25 9 20.25H15C15.5967 20.25 16.169 20.0129 16.591 19.591C17.0129 19.169 17.25 18.5967 17.25 18V7.5H6.75Z" fill="#FF7C65"/>
<path d="M9.75 17.25C9.55109 17.25 9.36032 17.171 9.21967 17.0303C9.07902 16.8897 9 16.6989 9 16.5V10.5C9 10.3011 9.07902 10.1103 9.21967 9.96967C9.36032 9.82902 9.55109 9.75 9.75 9.75C9.94891 9.75 10.1397 9.82902 10.2803 9.96967C10.421 10.1103 10.5 10.3011 10.5 10.5V16.5C10.5 16.6989 10.421 16.8897 10.2803 17.0303C10.1397 17.171 9.94891 17.25 9.75 17.25Z" fill="#FF7C65"/>
<path d="M14.25 17.25C14.0511 17.25 13.8603 17.171 13.7197 17.0303C13.579 16.8897 13.5 16.6989 13.5 16.5V10.5C13.5 10.3011 13.579 10.1103 13.7197 9.96967C13.8603 9.82902 14.0511 9.75 14.25 9.75C14.4489 9.75 14.6397 9.82902 14.7803 9.96967C14.921 10.1103 15 10.3011 15 10.5V16.5C15 16.6989 14.921 16.8897 14.7803 17.0303C14.6397 17.171 14.4489 17.25 14.25 17.25Z" fill="#FF7C65"/>
</svg>
