<svg width="24" height="24" viewBox="0 0 24 24" fill="none" xmlns="http://www.w3.org/2000/svg">
<path d="M9.99991 20.75C8.53643 20.7513 7.096 20.3856 5.81045 19.6862C4.52491 18.9868 3.43531 17.9762 2.64139 16.7468C1.84747 15.5174 1.3746 14.1085 1.26605 12.649C1.1575 11.1896 1.41674 9.72621 2.02005 8.39288C2.62335 7.05955 3.55145 5.89883 4.71939 5.01698C5.88733 4.13512 7.2578 3.56029 8.70537 3.34511C10.1529 3.12992 11.6314 3.28125 13.0053 3.78525C14.3793 4.28925 15.6049 5.12981 16.5699 6.23C16.6978 6.38207 16.761 6.57818 16.7461 6.77631C16.7311 6.97444 16.6392 7.15884 16.4899 7.29C16.4152 7.35455 16.3284 7.4037 16.2346 7.43463C16.1408 7.46556 16.0418 7.47766 15.9433 7.47022C15.8448 7.46279 15.7487 7.43597 15.6606 7.39132C15.5725 7.34666 15.4941 7.28504 15.4299 7.21C14.6332 6.29133 13.6182 5.58783 12.4783 5.16424C11.3384 4.74064 10.1103 4.61056 8.90701 4.78598C7.7037 4.96139 6.56383 5.43665 5.59233 6.16803C4.62083 6.8994 3.84889 7.8634 3.34758 8.97128C2.84626 10.0792 2.63166 11.2954 2.72353 12.5079C2.81541 13.7205 3.2108 14.8904 3.87333 15.9101C4.53585 16.9298 5.44422 17.7665 6.51483 18.3432C7.58544 18.9198 8.7839 19.2179 9.99991 19.21C11.0283 19.2121 12.0451 18.9936 12.9819 18.5693C13.9186 18.1449 14.7534 17.5245 15.4299 16.75C15.4941 16.675 15.5725 16.6133 15.6606 16.5687C15.7487 16.524 15.8448 16.4972 15.9433 16.4898C16.0418 16.4823 16.1408 16.4944 16.2346 16.5254C16.3284 16.5563 16.4152 16.6054 16.4899 16.67C16.6392 16.8012 16.7311 16.9856 16.7461 17.1837C16.761 17.3818 16.6978 17.5779 16.5699 17.73C15.7549 18.6745 14.7466 19.433 13.6131 19.954C12.4796 20.475 11.2474 20.7465 9.99991 20.75Z" fill="#FF7C65"/>
<path d="M19.0001 15.75C18.9015 15.7505 18.8039 15.7312 18.7129 15.6935C18.6219 15.6557 18.5393 15.6001 18.4701 15.53C18.3296 15.3894 18.2507 15.1988 18.2507 15C18.2507 14.8012 18.3296 14.6106 18.4701 14.47L20.9401 12L18.4701 9.53C18.3376 9.38782 18.2655 9.19978 18.2689 9.00548C18.2723 8.81118 18.351 8.62579 18.4885 8.48838C18.6259 8.35097 18.8112 8.27225 19.0056 8.26882C19.1999 8.2654 19.3879 8.33752 19.5301 8.47L22.5301 11.47C22.6705 11.6106 22.7494 11.8012 22.7494 12C22.7494 12.1988 22.6705 12.3894 22.5301 12.53L19.5301 15.53C19.4608 15.6001 19.3783 15.6557 19.2873 15.6935C19.1963 15.7312 19.0986 15.7505 19.0001 15.75Z" fill="#FF7C65"/>
<path d="M22 12.75H11C10.8011 12.75 10.6103 12.671 10.4697 12.5303C10.329 12.3897 10.25 12.1989 10.25 12C10.25 11.8011 10.329 11.6103 10.4697 11.4697C10.6103 11.329 10.8011 11.25 11 11.25H22C22.1989 11.25 22.3897 11.329 22.5303 11.4697C22.671 11.6103 22.75 11.8011 22.75 12C22.75 12.1989 22.671 12.3897 22.5303 12.5303C22.3897 12.671 22.1989 12.75 22 12.75Z" fill="#FF7C65"/>
</svg>
