<svg width="24" height="24" viewBox="0 0 24 24" fill="none" xmlns="http://www.w3.org/2000/svg">
<path d="M18.1109 22.75C16.3379 22.75 13.4729 18.132 13.4729 15.889C13.4639 15.2741 13.5772 14.6636 13.8062 14.0929C14.0353 13.5222 14.3755 13.0028 14.8072 12.5648C15.2388 12.1268 15.7532 11.779 16.3204 11.5416C16.8877 11.3041 17.4965 11.1819 18.1114 11.1819C18.7263 11.1819 19.3351 11.3041 19.9024 11.5416C20.4697 11.779 20.9841 12.1268 21.4157 12.5648C21.8473 13.0028 22.1875 13.5222 22.4166 14.0929C22.6456 14.6636 22.7589 15.2741 22.7499 15.889C22.7499 18.2 19.6719 22.75 18.1109 22.75ZM18.1109 12.75C17.2788 12.7511 16.4811 13.0821 15.8928 13.6706C15.3045 14.2591 14.9737 15.0569 14.9729 15.889C14.9729 17.689 17.2539 20.874 18.0819 21.229C18.8479 20.796 21.2499 17.613 21.2499 15.889C21.2491 15.0567 20.9181 14.2588 20.3296 13.6703C19.7411 13.0818 18.9432 12.7508 18.1109 12.75Z" fill="#FF7C65"/>
<path d="M13 21.75H6C4.74071 21.7484 3.53345 21.2475 2.643 20.357C1.75254 19.4666 1.25159 18.2593 1.25 17V6C1.25159 4.74071 1.75254 3.53345 2.643 2.643C3.53345 1.75254 4.74071 1.25159 6 1.25H17C18.2593 1.25159 19.4666 1.75254 20.357 2.643C21.2475 3.53345 21.7484 4.74071 21.75 6V10C21.75 10.1989 21.671 10.3897 21.5303 10.5303C21.3897 10.671 21.1989 10.75 21 10.75C20.8011 10.75 20.6103 10.671 20.4697 10.5303C20.329 10.3897 20.25 10.1989 20.25 10V6C20.2489 5.13837 19.9062 4.31234 19.2969 3.70307C18.6877 3.09381 17.8616 2.75106 17 2.75H6C5.13837 2.75106 4.31234 3.09381 3.70307 3.70307C3.09381 4.31234 2.75106 5.13837 2.75 6V17C2.75106 17.8616 3.09381 18.6877 3.70307 19.2969C4.31234 19.9062 5.13837 20.2489 6 20.25H13C13.1989 20.25 13.3897 20.329 13.5303 20.4697C13.671 20.6103 13.75 20.8011 13.75 21C13.75 21.1989 13.671 21.3897 13.5303 21.5303C13.3897 21.671 13.1989 21.75 13 21.75Z" fill="#FF7C65"/>
<path d="M13 9.75C12.8523 9.7499 12.7079 9.70606 12.585 9.624L6.585 5.624C6.50187 5.56989 6.43031 5.49983 6.37444 5.41788C6.31857 5.33592 6.27951 5.2437 6.25952 5.14655C6.23954 5.0494 6.23902 4.94925 6.258 4.8519C6.27698 4.75454 6.31508 4.66192 6.3701 4.5794C6.42512 4.49687 6.49596 4.42608 6.57853 4.37111C6.66109 4.31615 6.75373 4.27811 6.8511 4.25919C6.94846 4.24027 7.04861 4.24086 7.14575 4.26091C7.24289 4.28096 7.33508 4.32007 7.417 4.376L12.792 7.96L14.376 5.584C14.4873 5.42089 14.6585 5.30829 14.8524 5.27062C15.0462 5.23296 15.2471 5.27328 15.4115 5.38282C15.5758 5.49236 15.6902 5.6623 15.73 5.85573C15.7698 6.04916 15.7317 6.25049 15.624 6.416L13.624 9.416C13.5555 9.51873 13.4627 9.60297 13.3539 9.66123C13.245 9.7195 13.1235 9.74999 13 9.75Z" fill="#FF7C65"/>
<path d="M8 18.75C7.8643 18.7502 7.73114 18.7132 7.615 18.643C7.44451 18.5406 7.3216 18.3747 7.27324 18.1818C7.22487 17.9889 7.25499 17.7847 7.357 17.614L9.99 13.228L4.585 9.62799C4.50187 9.57389 4.43031 9.50383 4.37444 9.42187C4.31857 9.33992 4.27951 9.2477 4.25952 9.15055C4.23954 9.0534 4.23902 8.95325 4.258 8.85589C4.27698 8.75854 4.31508 8.66592 4.3701 8.58339C4.42512 8.50087 4.49596 8.43007 4.57853 8.37511C4.66109 8.32015 4.75373 8.2821 4.8511 8.26319C4.94846 8.24427 5.04861 8.24485 5.14575 8.2649C5.24289 8.28495 5.33508 8.32407 5.417 8.37999L11.417 12.38C11.5773 12.4869 11.6904 12.6514 11.7329 12.8394C11.7753 13.0274 11.7439 13.2245 11.645 13.39L8.645 18.39C8.57755 18.5004 8.48274 18.5916 8.36975 18.6546C8.25676 18.7177 8.1294 18.7506 8 18.75Z" fill="#FF7C65"/>
<path d="M18 17C18.5523 17 19 16.5523 19 16C19 15.4477 18.5523 15 18 15C17.4477 15 17 15.4477 17 16C17 16.5523 17.4477 17 18 17Z" fill="#FF7C65"/>
</svg>
