<svg width="24" height="24" viewBox="0 0 24 24" fill="none" xmlns="http://www.w3.org/2000/svg">
<path d="M19 22.75H5C4.27082 22.7495 3.57165 22.4596 3.05604 21.944C2.54043 21.4283 2.25053 20.7292 2.25 20V4C2.25053 3.27082 2.54043 2.57165 3.05604 2.05604C3.57165 1.54043 4.27082 1.25053 5 1.25H19C19.7292 1.25053 20.4283 1.54043 20.944 2.05604C21.4596 2.57165 21.7495 3.27082 21.75 4V20C21.7495 20.7292 21.4596 21.4283 20.944 21.944C20.4283 22.4596 19.7292 22.7495 19 22.75ZM5 2.75C4.66864 2.75053 4.35101 2.88239 4.1167 3.1167C3.88239 3.35101 3.75053 3.66864 3.75 4V20C3.75053 20.3314 3.88239 20.649 4.1167 20.8833C4.35101 21.1176 4.66864 21.2495 5 21.25H19C19.3314 21.2495 19.649 21.1176 19.8833 20.8833C20.1176 20.649 20.2495 20.3314 20.25 20V4C20.2495 3.66864 20.1176 3.35101 19.8833 3.1167C19.649 2.88239 19.3314 2.75053 19 2.75H5Z" fill="#FF7C65"/>
<path d="M8.33309 11.083C8.13439 11.0831 7.94377 11.0043 7.80309 10.864L6.47009 9.53C6.33761 9.38783 6.26549 9.19978 6.26892 9.00548C6.27234 8.81118 6.35106 8.62579 6.48847 8.48838C6.62588 8.35097 6.81127 8.27225 7.00557 8.26883C7.19987 8.2654 7.38792 8.33752 7.53009 8.47L8.33009 9.27L10.4701 7.136C10.54 7.0664 10.6228 7.01124 10.714 6.97368C10.8052 6.93611 10.9029 6.91687 11.0015 6.91705C11.1001 6.91724 11.1977 6.93685 11.2888 6.97476C11.3798 7.01267 11.4625 7.06814 11.5321 7.138C11.6017 7.20787 11.6568 7.29075 11.6944 7.38193C11.732 7.47311 11.7512 7.5708 11.751 7.66942C11.7509 7.76803 11.7312 7.86565 11.6933 7.95668C11.6554 8.04772 11.6 8.1304 11.5301 8.2L8.86309 10.864C8.72241 11.0043 8.53179 11.0831 8.33309 11.083Z" fill="#FF7C65"/>
<path d="M18 10.083H14C13.8011 10.083 13.6103 10.004 13.4697 9.86334C13.329 9.72269 13.25 9.53192 13.25 9.33301C13.25 9.1341 13.329 8.94333 13.4697 8.80268C13.6103 8.66202 13.8011 8.58301 14 8.58301H18C18.1989 8.58301 18.3897 8.66202 18.5303 8.80268C18.671 8.94333 18.75 9.1341 18.75 9.33301C18.75 9.53192 18.671 9.72269 18.5303 9.86334C18.3897 10.004 18.1989 10.083 18 10.083Z" fill="#FF7C65"/>
<path d="M8.33309 17.083C8.13439 17.0831 7.94377 17.0043 7.80309 16.864L6.47009 15.53C6.33761 15.3878 6.26549 15.1998 6.26892 15.0055C6.27234 14.8112 6.35106 14.6258 6.48847 14.4884C6.62588 14.351 6.81127 14.2722 7.00557 14.2688C7.19987 14.2654 7.38792 14.3375 7.53009 14.47L8.33009 15.27L10.4671 13.133C10.6086 12.992 10.8003 12.913 11 12.9134C11.1997 12.9138 11.3911 12.9935 11.5321 13.135C11.6731 13.2765 11.752 13.4682 11.7517 13.6679C11.7513 13.8676 11.6716 14.059 11.5301 14.2L8.86309 16.864C8.72241 17.0043 8.53179 17.0831 8.33309 17.083Z" fill="#FF7C65"/>
<path d="M18 16.083H14C13.8011 16.083 13.6103 16.004 13.4697 15.8633C13.329 15.7227 13.25 15.5319 13.25 15.333C13.25 15.1341 13.329 14.9433 13.4697 14.8027C13.6103 14.662 13.8011 14.583 14 14.583H18C18.1989 14.583 18.3897 14.662 18.5303 14.8027C18.671 14.9433 18.75 15.1341 18.75 15.333C18.75 15.5319 18.671 15.7227 18.5303 15.8633C18.3897 16.004 18.1989 16.083 18 16.083Z" fill="#FF7C65"/>
</svg>
