<svg width="24" height="24" viewBox="0 0 24 24" fill="none" xmlns="http://www.w3.org/2000/svg">
<path d="M12.0001 22.561C11.6154 22.561 11.2349 22.4806 10.8831 22.325L7.44609 20.8C5.89876 20.1119 4.58406 18.99 3.66117 17.5702C2.73827 16.1504 2.24674 14.4934 2.24609 12.8V5C2.24596 4.83824 2.2982 4.68078 2.39499 4.55118C2.49179 4.42157 2.62795 4.32679 2.78309 4.281C5.80586 3.45058 8.78239 2.46018 11.7001 1.314C11.7959 1.27198 11.8994 1.25028 12.0041 1.25028C12.1087 1.25028 12.2123 1.27198 12.3081 1.314C15.2232 2.45992 18.197 3.45031 21.2171 4.281C21.3715 4.3275 21.5068 4.42259 21.6028 4.55213C21.6988 4.68168 21.7505 4.83875 21.7501 5V12.8C21.7494 14.4934 21.2579 16.1504 20.335 17.5702C19.4121 18.99 18.0974 20.1119 16.5501 20.8L13.1131 22.328C12.7623 22.482 12.3832 22.5614 12.0001 22.561ZM3.75009 5.561V12.8C3.75079 14.2023 4.15787 15.5744 4.92208 16.7501C5.68629 17.9259 6.77487 18.855 8.05609 19.425L11.4921 20.953C11.6521 21.0237 11.8251 21.0602 12.0001 21.0602C12.175 21.0602 12.3481 21.0237 12.5081 20.953L15.9441 19.425C17.2253 18.855 18.3139 17.9259 19.0781 16.7501C19.8423 15.5744 20.2494 14.2023 20.2501 12.8V5.559C15.1741 4.042 12.7861 3.131 12.0001 2.813C11.2141 3.131 8.82609 4.042 3.75009 5.559V5.561Z" fill="#FF7C65"/>
<path d="M12 12C13.1046 12 14 11.1046 14 10C14 8.89543 13.1046 8 12 8C10.8954 8 10 8.89543 10 10C10 11.1046 10.8954 12 12 12Z" fill="#FF7C65"/>
<path d="M12 13.749C11.8011 13.749 11.6103 13.67 11.4697 13.5293C11.329 13.3887 11.25 13.1979 11.25 12.999V12C11.25 11.8011 11.329 11.6103 11.4697 11.4697C11.6103 11.329 11.8011 11.25 12 11.25C12.1989 11.25 12.3897 11.329 12.5303 11.4697C12.671 11.6103 12.75 11.8011 12.75 12V13C12.7497 13.1987 12.6706 13.3892 12.53 13.5297C12.3894 13.6701 12.1987 13.749 12 13.749Z" fill="#FF7C65"/>
</svg>
