<svg width="24" height="24" viewBox="0 0 24 24" fill="none" xmlns="http://www.w3.org/2000/svg">
<path d="M21.75 9H2.25C1.85218 9 1.47064 8.84196 1.18934 8.56066C0.908035 8.27936 0.75 7.89782 0.75 7.5V3.75C0.75 3.35218 0.908035 2.97064 1.18934 2.68934C1.47064 2.40804 1.85218 2.25 2.25 2.25H21.75C22.1478 2.25 22.5294 2.40804 22.8107 2.68934C23.092 2.97064 23.25 3.35218 23.25 3.75V7.5C23.25 7.89782 23.092 8.27936 22.8107 8.56066C22.5294 8.84196 22.1478 9 21.75 9ZM2.25 3.75V7.5H21.75V3.75H2.25Z" fill="#FF7C65"/>
<path d="M19.875 21.75H4.125C3.52826 21.75 2.95597 21.5129 2.53401 21.091C2.11205 20.669 1.875 20.0967 1.875 19.5V8.25C1.875 8.05109 1.95402 7.86032 2.09467 7.71967C2.23532 7.57902 2.42609 7.5 2.625 7.5H21.375C21.5739 7.5 21.7647 7.57902 21.9053 7.71967C22.046 7.86032 22.125 8.05109 22.125 8.25V19.5C22.125 20.0967 21.8879 20.669 21.466 21.091C21.044 21.5129 20.4717 21.75 19.875 21.75ZM3.375 9V19.5C3.375 19.6989 3.45402 19.8897 3.59467 20.0303C3.73532 20.171 3.92609 20.25 4.125 20.25H19.875C20.0739 20.25 20.2647 20.171 20.4053 20.0303C20.546 19.8897 20.625 19.6989 20.625 19.5V9H3.375Z" fill="#FF7C65"/>
<path d="M18 18.75H15C14.8011 18.75 14.6103 18.671 14.4697 18.5303C14.329 18.3897 14.25 18.1989 14.25 18C14.25 17.8011 14.329 17.6103 14.4697 17.4697C14.6103 17.329 14.8011 17.25 15 17.25H18C18.1989 17.25 18.3897 17.329 18.5303 17.4697C18.671 17.6103 18.75 17.8011 18.75 18C18.75 18.1989 18.671 18.3897 18.5303 18.5303C18.3897 18.671 18.1989 18.75 18 18.75Z" fill="#FF7C65"/>
</svg>
