<svg width="24" height="24" viewBox="0 0 24 24" fill="none" xmlns="http://www.w3.org/2000/svg">
<path d="M6.68996 21.75C3.52996 21.75 0.959961 19.18 0.959961 16.02V7.48C0.959961 4.32 3.52996 1.75 6.68996 1.75H12.27C12.47 1.75 12.66 1.83 12.8 1.97L17.78 6.95C17.92 7.09 18 7.28 18 7.48V9C18 9.41 17.67 9.75 17.26 9.75C16.85 9.75 16.51 9.42 16.51 9V8.22H14.76C12.98 8.22 11.53 6.77 11.53 4.99V3.25H6.68996C4.34996 3.24 2.44996 5.14 2.44996 7.48V16.03C2.44996 18.37 4.34996 20.27 6.68996 20.27H11.77C12.18 20.27 12.51 20.6 12.51 21.02C12.51 21.44 12.18 21.76 11.77 21.76H6.68996V21.75ZM13.01 4.98C13.01 5.94 13.79 6.72 14.75 6.72H15.44L13.01 4.29V4.98ZM5.16996 15.92C4.75996 15.92 4.41996 15.59 4.41996 15.17C4.41996 14.75 4.74996 14.42 5.16996 14.42H13.78C14.19 14.42 14.52 14.75 14.52 15.17C14.52 15.59 14.19 15.92 13.78 15.92H5.16996ZM5.16996 12.5C4.75996 12.5 4.41996 12.17 4.41996 11.75C4.41996 11.33 4.74996 11 5.16996 11H13.78C14.19 11 14.52 11.33 14.52 11.75C14.52 12.17 14.19 12.5 13.78 12.5H5.16996ZM5.16996 9.08C4.75996 9.08 4.41996 8.74 4.41996 8.33C4.41996 7.92 4.74996 7.58 5.16996 7.58H9.92996C10.34 7.58 10.67 7.91 10.67 8.33C10.67 8.75 10.34 9.08 9.92996 9.08H5.16996Z" fill="#FF7C65"/>
<path d="M18.2099 22.2501C16.9399 22.2501 15.7399 21.7601 14.8399 20.8801C13.9499 20.0101 13.4399 18.8601 13.3899 17.6301H15.0699C15.1799 19.2901 16.5399 20.5701 18.2099 20.5701C19.8799 20.5701 21.3599 19.1601 21.3599 17.4201C21.3599 15.9401 20.3099 14.6401 18.8599 14.3401L18.1399 14.1901V15.8901L15.1099 13.5901L18.1399 11.3101V12.5701L18.6799 12.6201C21.1699 12.8601 23.0399 14.9301 23.0399 17.4301C23.0399 20.0901 20.8699 22.2601 18.2099 22.2601V22.2501Z" fill="#FF7C65"/>
</svg>
