<svg width="24" height="24" viewBox="0 0 24 24" fill="none" xmlns="http://www.w3.org/2000/svg">
<path d="M7.01 23.51C3.53 22.98 1 20.42 1 17.44V14.21C1 13.8 1.34 13.46 1.75 13.46C2.82 13.46 3.69 12.59 3.69 11.52C3.69 11.11 4.03 10.77 4.44 10.77H6.38V3.21C6.38 1.99 7.37 1 8.59 1H20.81C22.03 1 23.02 1.99 23.02 3.21V19.33C23.02 20.55 22.03 21.54 20.81 21.54H11.39C10.31 22.56 8.84 23.25 7.24 23.49H7.22H7.01V23.51ZM2.5 17.44C2.5 19.65 4.46 21.58 7.17 22.02C9.79 21.58 11.75 19.65 11.75 17.44V14.87C10.45 14.6 9.43 13.59 9.13 12.27H5.09C4.81 13.56 3.79 14.59 2.49 14.87V17.44H2.5ZM20.81 20.06C21.21 20.06 21.53 19.74 21.53 19.34V3.21C21.53 2.81 21.21 2.49 20.81 2.49H8.59C8.19 2.49 7.87 2.81 7.87 3.21V10.77H9.81C10.22 10.77 10.56 11.11 10.56 11.52C10.56 12.59 11.43 13.46 12.5 13.46C12.91 13.46 13.25 13.8 13.25 14.21V17.44C13.25 18.35 13.01 19.23 12.55 20.06H20.81ZM6.62 19.09C6.42 19.09 6.24 19.01 6.09 18.87L4.7 17.48C4.56 17.34 4.48 17.15 4.48 16.95C4.48 16.75 4.56 16.57 4.7 16.42C4.84 16.28 5.03 16.2 5.23 16.2C5.43 16.2 5.61 16.28 5.76 16.42L6.6 17.26L8.49 15.37C8.64 15.24 8.82 15.17 9.02 15.17C9.23 15.17 9.43 15.25 9.57 15.4C9.86 15.69 9.86 16.16 9.57 16.45L7.15 18.87C7.01 19.01 6.82 19.09 6.62 19.09ZM11.04 9.83C10.63 9.83 10.29 9.49 10.29 9.08C10.29 8.67 10.63 8.33 11.04 8.33H18.37C18.78 8.33 19.12 8.67 19.12 9.08C19.12 9.49 18.78 9.83 18.37 9.83H11.04ZM11.04 7.39C10.63 7.39 10.29 7.05 10.29 6.64C10.29 6.23 10.63 5.89 11.04 5.89H18.37C18.78 5.89 19.12 6.23 19.12 6.64C19.12 7.05 18.78 7.39 18.37 7.39H11.04ZM11.04 4.95C10.63 4.95 10.29 4.61 10.29 4.2C10.29 3.79 10.63 3.45 11.04 3.45H18.37C18.78 3.45 19.12 3.79 19.12 4.2C19.12 4.61 18.78 4.95 18.37 4.95H11.04Z" fill="#FF7C65"/>
</svg>
