<svg width="24" height="24" viewBox="0 0 24 24" fill="none" xmlns="http://www.w3.org/2000/svg">
<path d="M14 8.75H10C9.53603 8.74947 9.09122 8.56493 8.76315 8.23685C8.43507 7.90878 8.25053 7.46397 8.25 7V3C8.25053 2.53603 8.43507 2.09122 8.76315 1.76315C9.09122 1.43507 9.53603 1.25053 10 1.25H14C14.464 1.25053 14.9088 1.43507 15.2369 1.76315C15.5649 2.09122 15.7495 2.53603 15.75 3V7C15.7495 7.46397 15.5649 7.90878 15.2369 8.23685C14.9088 8.56493 14.464 8.74947 14 8.75ZM10 2.75C9.9337 2.75 9.87011 2.77634 9.82322 2.82322C9.77634 2.87011 9.75 2.9337 9.75 3V7C9.75 7.0663 9.77634 7.12989 9.82322 7.17678C9.87011 7.22366 9.9337 7.25 10 7.25H14C14.0663 7.25 14.1299 7.22366 14.1768 7.17678C14.2237 7.12989 14.25 7.0663 14.25 7V3C14.25 2.9337 14.2237 2.87011 14.1768 2.82322C14.1299 2.77634 14.0663 2.75 14 2.75H10Z" fill="#FF7C65"/>
<path d="M7 22.75H3C2.53603 22.7495 2.09122 22.5649 1.76315 22.2369C1.43507 21.9088 1.25053 21.464 1.25 21V17C1.25053 16.536 1.43507 16.0912 1.76315 15.7631C2.09122 15.4351 2.53603 15.2505 3 15.25H7C7.46397 15.2505 7.90878 15.4351 8.23685 15.7631C8.56493 16.0912 8.74947 16.536 8.75 17V21C8.74947 21.464 8.56493 21.9088 8.23685 22.2369C7.90878 22.5649 7.46397 22.7495 7 22.75ZM3 16.75C2.9337 16.75 2.87011 16.7763 2.82322 16.8232C2.77634 16.8701 2.75 16.9337 2.75 17V21C2.75 21.0663 2.77634 21.1299 2.82322 21.1768C2.87011 21.2237 2.9337 21.25 3 21.25H7C7.0663 21.25 7.12989 21.2237 7.17678 21.1768C7.22366 21.1299 7.25 21.0663 7.25 21V17C7.25 16.9337 7.22366 16.8701 7.17678 16.8232C7.12989 16.7763 7.0663 16.75 7 16.75H3Z" fill="#FF7C65"/>
<path d="M21 22.75H17C16.536 22.7495 16.0912 22.5649 15.7631 22.2369C15.4351 21.9088 15.2505 21.464 15.25 21V17C15.2505 16.536 15.4351 16.0912 15.7631 15.7631C16.0912 15.4351 16.536 15.2505 17 15.25H21C21.464 15.2505 21.9088 15.4351 22.2369 15.7631C22.5649 16.0912 22.7495 16.536 22.75 17V21C22.7495 21.464 22.5649 21.9088 22.2369 22.2369C21.9088 22.5649 21.464 22.7495 21 22.75ZM17 16.75C16.9337 16.75 16.8701 16.7763 16.8232 16.8232C16.7763 16.8701 16.75 16.9337 16.75 17V21C16.75 21.0663 16.7763 21.1299 16.8232 21.1768C16.8701 21.2237 16.9337 21.25 17 21.25H21C21.0663 21.25 21.1299 21.2237 21.1768 21.1768C21.2237 21.1299 21.25 21.0663 21.25 21V17C21.25 16.9337 21.2237 16.8701 21.1768 16.8232C21.1299 16.7763 21.0663 16.75 21 16.75H17Z" fill="#FF7C65"/>
<path d="M19 14.75C18.8011 14.75 18.6103 14.671 18.4697 14.5303C18.329 14.3897 18.25 14.1989 18.25 14V13C18.25 12.9337 18.2237 12.8701 18.1768 12.8232C18.1299 12.7763 18.0663 12.75 18 12.75H6C5.9337 12.75 5.87011 12.7763 5.82322 12.8232C5.77634 12.8701 5.75 12.9337 5.75 13V14C5.75 14.1989 5.67098 14.3897 5.53033 14.5303C5.38968 14.671 5.19891 14.75 5 14.75C4.80109 14.75 4.61032 14.671 4.46967 14.5303C4.32902 14.3897 4.25 14.1989 4.25 14V13C4.25053 12.536 4.43507 12.0912 4.76315 11.7631C5.09122 11.4351 5.53603 11.2505 6 11.25H18C18.464 11.2505 18.9088 11.4351 19.2369 11.7631C19.5649 12.0912 19.7495 12.536 19.75 13V14C19.75 14.1989 19.671 14.3897 19.5303 14.5303C19.3897 14.671 19.1989 14.75 19 14.75Z" fill="#FF7C65"/>
<path d="M12 12.75C11.8011 12.75 11.6103 12.671 11.4697 12.5303C11.329 12.3897 11.25 12.1989 11.25 12V8C11.25 7.80109 11.329 7.61032 11.4697 7.46967C11.6103 7.32902 11.8011 7.25 12 7.25C12.1989 7.25 12.3897 7.32902 12.5303 7.46967C12.671 7.61032 12.75 7.80109 12.75 8V12C12.75 12.1989 12.671 12.3897 12.5303 12.5303C12.3897 12.671 12.1989 12.75 12 12.75Z" fill="#FF7C65"/>
</svg>
