<svg width="24" height="24" viewBox="0 0 24 24" fill="none" xmlns="http://www.w3.org/2000/svg">
<path d="M19 22.75H5C4.53603 22.7495 4.09122 22.5649 3.76315 22.2369C3.43507 21.9088 3.25053 21.464 3.25 21V3C3.25053 2.53603 3.43507 2.09122 3.76315 1.76315C4.09122 1.43507 4.53603 1.25053 5 1.25H15.52C15.7825 1.24938 16.0417 1.30816 16.2783 1.42193C16.5149 1.53571 16.7226 1.70154 16.886 1.907L20.366 6.257C20.6145 6.56751 20.7499 6.95332 20.75 7.351V21C20.7495 21.464 20.5649 21.9088 20.2369 22.2369C19.9088 22.5649 19.464 22.7495 19 22.75ZM5 2.75C4.9337 2.75 4.87011 2.77634 4.82322 2.82322C4.77634 2.8701 4.75 2.93369 4.75 3V21C4.75 21.0663 4.77634 21.1299 4.82322 21.1768C4.87011 21.2237 4.9337 21.25 5 21.25H19C19.0663 21.25 19.1299 21.2237 19.1768 21.1768C19.2237 21.1299 19.25 21.0663 19.25 21V7.351C19.2498 7.29663 19.2323 7.24374 19.2 7.2L15.715 2.844C15.6912 2.81393 15.6608 2.7898 15.626 2.77349C15.5913 2.75718 15.5533 2.74914 15.515 2.75H5Z" fill="#FF7C65"/>
<path d="M19.93 7.75H17C16.536 7.74947 16.0912 7.56492 15.7631 7.23685C15.4351 6.90878 15.2505 6.46396 15.25 6V2.13C15.25 1.93109 15.329 1.74032 15.4697 1.59967C15.6103 1.45901 15.8011 1.38 16 1.38C16.1989 1.38 16.3897 1.45901 16.5303 1.59967C16.671 1.74032 16.75 1.93109 16.75 2.13V6C16.75 6.0663 16.7763 6.12989 16.8232 6.17677C16.8701 6.22366 16.9337 6.25 17 6.25H19.93C20.1289 6.25 20.3197 6.32902 20.4603 6.46967C20.601 6.61032 20.68 6.80109 20.68 7C20.68 7.19891 20.601 7.38968 20.4603 7.53033C20.3197 7.67098 20.1289 7.75 19.93 7.75Z" fill="#FF7C65"/>
<path d="M6.99995 19.75C6.8642 19.75 6.73101 19.7131 6.61456 19.6434C6.49812 19.5736 6.40279 19.4736 6.33874 19.3539C6.27469 19.2342 6.24432 19.0994 6.25087 18.9638C6.25743 18.8282 6.30065 18.6969 6.37595 18.584L8.37595 15.584C8.44848 15.4869 8.54265 15.4081 8.65097 15.3539C8.75929 15.2996 8.87878 15.2713 8.99995 15.2713C9.12111 15.2713 9.2406 15.2996 9.34892 15.3539C9.45725 15.4081 9.55141 15.4869 9.62395 15.584L10.9069 17.509L11.3289 16.665C11.3817 16.5585 11.4589 16.4661 11.5543 16.3954C11.6497 16.3246 11.7606 16.2775 11.8778 16.258C11.995 16.2385 12.1151 16.247 12.2283 16.283C12.3415 16.319 12.4446 16.3814 12.5289 16.465L14.3099 18.245H16.9999C17.1989 18.245 17.3896 18.324 17.5303 18.4647C17.6709 18.6053 17.7499 18.7961 17.7499 18.995C17.7499 19.1939 17.6709 19.3847 17.5303 19.5253C17.3896 19.666 17.1989 19.745 16.9999 19.745H13.9999C13.9015 19.7451 13.8039 19.7257 13.713 19.6879C13.622 19.6502 13.5394 19.5948 13.4699 19.525L12.2059 18.261L11.6709 19.33C11.6122 19.4476 11.5237 19.5476 11.4141 19.6202C11.3046 19.6928 11.1779 19.7353 11.0468 19.7435C10.9156 19.7517 10.7846 19.7253 10.6669 19.6669C10.5492 19.6086 10.4488 19.5203 10.3759 19.411L8.99995 17.352L7.62395 19.416C7.55553 19.5188 7.46275 19.6031 7.35389 19.6614C7.24502 19.7196 7.12343 19.7501 6.99995 19.75Z" fill="#FF7C65"/>
<path d="M11 6.75H7C6.80109 6.75 6.61032 6.67098 6.46967 6.53033C6.32902 6.38968 6.25 6.19891 6.25 6C6.25 5.80109 6.32902 5.61032 6.46967 5.46967C6.61032 5.32902 6.80109 5.25 7 5.25H11C11.1989 5.25 11.3897 5.32902 11.5303 5.46967C11.671 5.61032 11.75 5.80109 11.75 6C11.75 6.19891 11.671 6.38968 11.5303 6.53033C11.3897 6.67098 11.1989 6.75 11 6.75Z" fill="#FF7C65"/>
<path d="M15 9.75H7C6.80109 9.75 6.61032 9.67098 6.46967 9.53033C6.32902 9.38968 6.25 9.19891 6.25 9C6.25 8.80109 6.32902 8.61032 6.46967 8.46967C6.61032 8.32902 6.80109 8.25 7 8.25H15C15.1989 8.25 15.3897 8.32902 15.5303 8.46967C15.671 8.61032 15.75 8.80109 15.75 9C15.75 9.19891 15.671 9.38968 15.5303 9.53033C15.3897 9.67098 15.1989 9.75 15 9.75Z" fill="#FF7C65"/>
<path d="M15 12.75H7C6.80109 12.75 6.61032 12.671 6.46967 12.5303C6.32902 12.3897 6.25 12.1989 6.25 12C6.25 11.8011 6.32902 11.6103 6.46967 11.4697C6.61032 11.329 6.80109 11.25 7 11.25H15C15.1989 11.25 15.3897 11.329 15.5303 11.4697C15.671 11.6103 15.75 11.8011 15.75 12C15.75 12.1989 15.671 12.3897 15.5303 12.5303C15.3897 12.671 15.1989 12.75 15 12.75Z" fill="#FF7C65"/>
</svg>
