<svg width="24" height="24" viewBox="0 0 24 24" fill="none" xmlns="http://www.w3.org/2000/svg">
<path d="M16 22.75H6C4.74071 22.7484 3.53345 22.2475 2.643 21.357C1.75254 20.4666 1.25159 19.2593 1.25 18V11C1.25159 9.74071 1.75254 8.53345 2.643 7.643C3.53345 6.75254 4.74071 6.25159 6 6.25H16C17.2593 6.25159 18.4666 6.75254 19.357 7.643C20.2475 8.53345 20.7484 9.74071 20.75 11V12.5C20.75 12.6989 20.671 12.8897 20.5303 13.0303C20.3897 13.171 20.1989 13.25 20 13.25C19.8011 13.25 19.6103 13.171 19.4697 13.0303C19.329 12.8897 19.25 12.6989 19.25 12.5V11C19.2489 10.1384 18.9062 9.31234 18.2969 8.70307C17.6877 8.09381 16.8616 7.75106 16 7.75H6C5.13837 7.75106 4.31234 8.09381 3.70307 8.70307C3.09381 9.31234 2.75106 10.1384 2.75 11V18C2.75106 18.8616 3.09381 19.6877 3.70307 20.2969C4.31234 20.9062 5.13837 21.2489 6 21.25H16C16.8616 21.2489 17.6877 20.9062 18.2969 20.2969C18.9062 19.6877 19.2489 18.8616 19.25 18V16.5C19.25 16.3011 19.329 16.1103 19.4697 15.9697C19.6103 15.829 19.8011 15.75 20 15.75C20.1989 15.75 20.3897 15.829 20.5303 15.9697C20.671 16.1103 20.75 16.3011 20.75 16.5V18C20.7484 19.2593 20.2475 20.4666 19.357 21.357C18.4666 22.2475 17.2593 22.7484 16 22.75Z" fill="#FF7C65"/>
<path d="M21 17.25H17C16.536 17.2495 16.0912 17.0649 15.7631 16.7369C15.4351 16.4088 15.2505 15.964 15.25 15.5V13.5C15.2505 13.036 15.4351 12.5912 15.7631 12.2631C16.0912 11.9351 16.536 11.7505 17 11.75H21C21.464 11.7505 21.9088 11.9351 22.2369 12.2631C22.5649 12.5912 22.7495 13.036 22.75 13.5V15.5C22.7495 15.964 22.5649 16.4088 22.2369 16.7369C21.9088 17.0649 21.464 17.2495 21 17.25ZM17 13.25C16.9337 13.25 16.8701 13.2763 16.8232 13.3232C16.7763 13.3701 16.75 13.4337 16.75 13.5V15.5C16.75 15.5663 16.7763 15.6299 16.8232 15.6768C16.8701 15.7237 16.9337 15.75 17 15.75H21C21.0663 15.75 21.1299 15.7237 21.1768 15.6768C21.2237 15.6299 21.25 15.5663 21.25 15.5V13.5C21.25 13.4337 21.2237 13.3701 21.1768 13.3232C21.1299 13.2763 21.0663 13.25 21 13.25H17Z" fill="#FF7C65"/>
<path d="M15.9999 7.74999H5.99991C5.84583 7.74992 5.69551 7.70239 5.56939 7.61388C5.44327 7.52536 5.34747 7.40015 5.29503 7.25527C5.24258 7.11039 5.23603 6.95287 5.27627 6.80413C5.3165 6.6554 5.40157 6.52267 5.51991 6.42399L10.7359 2.07699C10.9147 1.92787 11.1215 1.81596 11.3441 1.74781C11.5668 1.67966 11.8007 1.65664 12.0324 1.68011C12.264 1.70359 12.4887 1.77307 12.6931 1.88449C12.8975 1.99591 13.0776 2.14703 13.2229 2.32899L16.5849 6.52899C16.6739 6.63923 16.7298 6.77241 16.7462 6.91311C16.7626 7.05382 16.7388 7.1963 16.6776 7.32405C16.6164 7.4518 16.5203 7.55961 16.4003 7.63499C16.2804 7.71037 16.1416 7.75024 15.9999 7.74999ZM8.07191 6.24999H14.4389L12.0519 3.26599C12.031 3.23988 12.0052 3.2182 11.9758 3.20223C11.9464 3.18626 11.9142 3.17632 11.8809 3.17299C11.848 3.16907 11.8147 3.17202 11.783 3.18166C11.7514 3.1913 11.722 3.20742 11.6969 3.22899L8.07191 6.24999Z" fill="#FF7C65"/>
</svg>
