<svg width="24" height="24" viewBox="0 0 24 24" fill="none" xmlns="http://www.w3.org/2000/svg">
<path d="M11.9999 13.59C9.74992 13.59 7.91992 11.76 7.91992 9.5C7.91992 7.24 9.74992 5.41 11.9999 5.41C14.2499 5.41 16.0899 7.24 16.0899 9.5C16.0899 11.75 14.2499 13.58 11.9999 13.59ZM11.9999 6.92C10.5799 6.92 9.41992 8.08 9.41992 9.5C9.41992 10.92 10.5799 12.08 11.9999 12.08C13.4199 12.08 14.5799 10.92 14.5799 9.5C14.5799 8.08 13.4199 6.92 11.9999 6.92Z" fill="#FF7C65"/>
<path d="M12 22.75C10.27 22.75 3.75 13.59 3.75 9.5C3.75 4.95 7.45 1.25 12 1.25C16.55 1.25 20.25 4.95 20.25 9.5C20.25 13.59 13.73 22.75 12 22.75ZM12 2.75C8.28 2.75 5.26 5.78 5.25 9.5C5.25 13 10.56 19.84 11.94 21.08L11.99 21.13L12.04 21.08C13.43 19.84 18.73 12.99 18.73 9.5C18.73 5.78 15.7 2.76 11.98 2.75H12Z" fill="#FF7C65"/>
</svg>
