<svg width="24" height="24" viewBox="0 0 24 24" fill="none" xmlns="http://www.w3.org/2000/svg">
<path d="M17 22.75H7C4.93 22.75 3.25 21.07 3.25 19V5C3.25 2.93 4.93 1.25 7 1.25H13.6C14.71 1.25 15.77 1.74 16.48 2.6L19.89 6.69C20.45 7.36 20.76 8.21 20.76 9.09V19C20.76 21.07 19.08 22.75 17.01 22.75H17ZM7 2.75C5.76 2.75 4.75 3.76 4.75 5V19C4.75 20.24 5.76 21.25 7 21.25H17C18.24 21.25 19.25 20.24 19.25 19V9.09C19.25 8.56 19.07 8.05 18.73 7.65L15.32 3.56C14.89 3.05 14.26 2.75 13.6 2.75H7Z" fill="#FF7C65"/>
<path d="M16 12.75H8C7.59 12.75 7.25 12.41 7.25 12C7.25 11.59 7.59 11.25 8 11.25H16C16.41 11.25 16.75 11.59 16.75 12C16.75 12.41 16.41 12.75 16 12.75Z" fill="#FF7C65"/>
<path d="M14 16.75H8C7.59 16.75 7.25 16.41 7.25 16C7.25 15.59 7.59 15.25 8 15.25H14C14.41 15.25 14.75 15.59 14.75 16C14.75 16.41 14.41 16.75 14 16.75Z" fill="#FF7C65"/>
<path d="M19.8 8.75H17C15.48 8.75 14.25 7.52 14.25 6V2.35C14.25 1.94 14.59 1.6 15 1.6C15.41 1.6 15.75 1.94 15.75 2.35V6C15.75 6.69 16.31 7.25 17 7.25H19.8C20.21 7.25 20.55 7.59 20.55 8C20.55 8.41 20.21 8.75 19.8 8.75Z" fill="#FF7C65"/>
</svg>
