<svg width="24" height="24" viewBox="0 0 24 24" fill="none" xmlns="http://www.w3.org/2000/svg">
<path d="M5.38008 20.19C3.15008 20.19 1.33008 18.37 1.33008 16.14V7.86C1.33008 5.63 3.15008 3.81 5.38008 3.81H18.6101C20.8401 3.81 22.6601 5.63 22.6601 7.86V16.13C22.6601 18.36 20.8401 20.18 18.6101 20.18H5.38008V20.19ZM5.38008 5.3C3.97008 5.3 2.82008 6.45 2.82008 7.86V16.13C2.82008 17.54 3.97008 18.69 5.38008 18.69H18.6101C20.0201 18.69 21.1701 17.54 21.1701 16.13V7.86C21.1701 6.45 20.0201 5.3 18.6101 5.3H5.38008Z" fill="#FF7C65"/>
<path d="M11.9901 13.44C11.0701 13.44 10.1601 13.12 9.45007 12.54L2.16007 6.62C1.86007 6.38 1.80007 5.95 2.01007 5.63C2.76007 4.49 4.02007 3.81 5.38007 3.81H18.6201C19.9901 3.81 21.2501 4.49 22.0001 5.63C22.2101 5.95 22.1401 6.38 21.8501 6.62L14.5601 12.54C13.8401 13.12 12.9401 13.44 12.0101 13.44H11.9901ZM5.38007 5.3C4.80007 5.3 4.22007 5.5 3.77007 5.87L3.69007 5.93L10.3801 11.37C10.8401 11.74 11.4101 11.94 11.9901 11.94C12.5701 11.94 13.1501 11.74 13.6001 11.37L20.2901 5.93L20.2101 5.87C19.7601 5.5 19.1901 5.3 18.6001 5.3H5.38007Z" fill="#FF7C65"/>
</svg>
