<svg width="24" height="24" viewBox="0 0 24 24" fill="none" xmlns="http://www.w3.org/2000/svg">
<path d="M15.6799 22.75C14.7399 22.75 13.8299 22.55 12.9699 22.16C8.02987 19.92 4.07987 15.97 1.83987 11.03C0.899874 8.95999 1.08987 6.58999 2.34987 4.68999L3.66987 2.69999C4.26987 1.78999 5.28987 1.23999 6.37987 1.23999C7.01987 1.23999 7.63987 1.42999 8.16987 1.77999C8.34987 1.89999 8.51987 2.03999 8.66987 2.18999L9.99987 3.51999C11.2399 4.76999 11.2499 6.81999 10.0299 8.08999L8.84987 9.29999C9.29987 12.37 11.6299 14.7 14.6299 15.17L15.9099 13.97C16.5199 13.38 17.3299 13.05 18.1799 13.05C19.0299 13.05 19.8599 13.39 20.4799 14L21.8099 15.33C23.0799 16.6 23.0799 18.66 21.8099 19.92C21.6599 20.07 21.4899 20.21 21.3099 20.33L19.3199 21.64C18.2399 22.36 16.9899 22.74 15.6899 22.74L15.6799 22.75ZM6.37987 2.74999C6.31987 2.74999 6.25987 2.74999 6.20987 2.74999C5.68987 2.79999 5.21987 3.07999 4.92987 3.51999L3.60987 5.50999C2.62987 6.96999 2.48987 8.79999 3.20987 10.4C5.28987 15.01 8.97987 18.69 13.5799 20.78C14.2399 21.08 14.9399 21.23 15.6699 21.23C16.6699 21.23 17.6399 20.94 18.4699 20.38L20.4599 19.07C20.8499 18.81 21.1099 18.42 21.2099 17.96C21.2999 17.5 21.2099 17.04 20.9499 16.65C20.8899 16.55 20.8099 16.46 20.7299 16.38L19.3999 15.05C19.0699 14.72 18.6299 14.54 18.1699 14.54C17.7099 14.54 17.2799 14.72 16.9499 15.04L15.4499 16.5C15.3099 16.64 15.1199 16.71 14.9199 16.71C10.8599 16.3 7.67987 13.11 7.26987 9.12999C7.24987 8.90999 7.31987 8.68999 7.47987 8.52999L8.93987 7.02999C9.59987 6.34999 9.58987 5.24999 8.92987 4.57999L7.59987 3.25999C7.26987 2.92999 6.82987 2.74999 6.36987 2.74999H6.37987Z" fill="#FF7C65"/>
</svg>
