<svg width="22" height="22" viewBox="0 0 22 22" fill="none" xmlns="http://www.w3.org/2000/svg">
<path d="M16.1786 8.90998C15.977 8.87331 15.7661 8.85498 15.5461 8.85498H6.4528C6.2328 8.85498 6.02197 8.87331 5.8203 8.90998C4.10613 9.21248 2.7953 10.7158 2.78613 12.5125V17.0591C2.7953 19.085 4.43613 20.7258 6.4528 20.7258H15.5461C17.5628 20.7258 19.2036 19.085 19.2128 17.0591V12.5125C19.2036 10.7158 17.8928 9.21248 16.1786 8.90998ZM17.9478 17.0591C17.9478 18.3883 16.8753 19.47 15.5461 19.47H6.4528C5.12363 19.47 4.05113 18.3883 4.05113 17.0591V12.5125C4.05113 11.1925 5.12363 10.1108 6.4528 10.1108H15.5461C16.8753 10.1108 17.9478 11.1925 17.9478 12.5125V17.0591Z" fill="#201A1A" fill-opacity="0.67"/>
<path d="M16.1786 6.45331V8.90997C15.977 8.87331 15.7661 8.85497 15.5461 8.85497H14.8953L14.9136 6.45331C14.9136 4.28997 13.1628 2.52997 10.9995 2.52997C8.83615 2.52997 7.07615 4.28997 7.07615 6.45331V8.83664L14.8953 8.85497H6.45281C6.23281 8.85497 6.02198 8.87331 5.82031 8.90997V6.45331C5.82031 3.59331 8.14865 1.27414 10.9995 1.27414C13.8503 1.27414 16.1786 3.59331 16.1786 6.45331Z" fill="#201A1A" fill-opacity="0.67"/>
<path d="M11.6322 15.5467V16.3075C11.6322 16.6559 11.348 16.94 10.9997 16.94C10.6514 16.94 10.3672 16.6559 10.3672 16.3075V15.5467C10.3672 15.455 10.3855 15.3725 10.4222 15.29C10.5964 15.3725 10.798 15.4184 10.9997 15.4184C11.2014 15.4184 11.403 15.3725 11.5772 15.29C11.6139 15.3725 11.6322 15.455 11.6322 15.5467Z" fill="#201A1A" fill-opacity="0.67"/>
<path d="M12.3845 14.0342C12.3845 14.5934 12.0545 15.07 11.5779 15.29C11.4037 15.3725 11.202 15.4184 11.0004 15.4184C10.7987 15.4184 10.597 15.3725 10.4229 15.29C9.94621 15.07 9.61621 14.5934 9.61621 14.0342C9.61621 13.2642 10.2395 12.6409 11.0004 12.6409C11.7612 12.6409 12.3845 13.2642 12.3845 14.0342Z" fill="#201A1A" fill-opacity="0.67"/>
</svg>
