<svg width="24" height="24" viewBox="0 0 24 24" fill="none" xmlns="http://www.w3.org/2000/svg">
<path d="M14.5002 12.75C13.5402 12.75 12.6202 12.34 12.0002 11.6C11.3802 12.33 10.4602 12.75 9.50023 12.75C8.54023 12.75 7.62023 12.34 7.00023 11.6C6.91023 11.71 6.81023 11.81 6.70023 11.91C6.02023 12.53 5.11023 12.83 4.19023 12.73C2.49023 12.52 1.23023 11.07 1.25023 9.36V8.65C1.25023 8.14 1.33023 7.63 1.49023 7.15L3.06023 2.45C3.30023 1.73 3.97023 1.25 4.72023 1.25H19.2802C20.0302 1.25 20.7002 1.73 20.9402 2.45L22.5102 7.15C22.6702 7.63 22.7502 8.14 22.7502 8.65V9.36C22.7702 11.06 21.5202 12.51 19.8302 12.73C18.9102 12.83 18.0002 12.53 17.3202 11.91C17.2102 11.81 17.1002 11.69 17.0002 11.58C16.3802 12.32 15.4602 12.75 14.5002 12.75ZM4.72023 2.75C4.61023 2.75 4.52023 2.82 4.48023 2.92L2.92023 7.62C2.81023 7.94 2.75023 8.28 2.75023 8.62V9.33C2.72023 10.26 3.39023 11.07 4.32023 11.21C5.28023 11.31 6.14023 10.61 6.24023 9.65C6.24023 9.6 6.24023 9.55 6.24023 9.5C6.24023 9.09 6.58023 8.75 6.99023 8.75C7.40023 8.75 7.74023 9.09 7.74023 9.5C7.69023 10.42 8.40023 11.2 9.33023 11.25C9.38023 11.25 9.44023 11.25 9.49023 11.25C10.4502 11.25 11.2302 10.46 11.2402 9.5C11.2402 9.09 11.5802 8.75 11.9902 8.75C12.4002 8.75 12.7402 9.09 12.7402 9.5C12.6902 10.42 13.4002 11.2 14.3302 11.25C14.3802 11.25 14.4402 11.25 14.4902 11.25C15.4502 11.25 16.2302 10.46 16.2402 9.5C16.2402 9.09 16.5802 8.75 16.9902 8.75C17.4002 8.75 17.7402 9.09 17.7402 9.5C17.7402 10.47 18.5202 11.25 19.4902 11.25C19.5502 11.25 19.6102 11.25 19.6702 11.25C20.6002 11.11 21.2702 10.3 21.2402 9.37V8.66C21.2402 8.32 21.1802 7.98 21.0702 7.66L19.5102 2.96C19.4702 2.86 19.3802 2.79 19.2702 2.79L4.71023 2.76L4.72023 2.75Z" fill="#FF7C65"/>
<path d="M20 22.75H4C3.04 22.75 2.26 21.96 2.25 21V11.48C2.25 11.07 2.59 10.73 3 10.73C3.41 10.73 3.75 11.07 3.75 11.48V21C3.75 21.14 3.86 21.25 4 21.25H20C20.14 21.25 20.25 21.14 20.25 21V11.47C20.25 11.06 20.59 10.72 21 10.72C21.41 10.72 21.75 11.06 21.75 11.47V21C21.75 21.96 20.96 22.74 20 22.75Z" fill="#FF7C65"/>
<path d="M15.5 22.75H8.5C8.09 22.75 7.76 22.41 7.75 22V17C7.75 16.04 8.54 15.26 9.5 15.25H14.5C15.46 15.25 16.24 16.04 16.25 17V22C16.25 22.41 15.91 22.74 15.5 22.75ZM9.25 21.25H14.75V17C14.75 16.86 14.64 16.75 14.5 16.75H9.5C9.36 16.75 9.25 16.86 9.25 17V21.25Z" fill="#FF7C65"/>
</svg>
