<svg width="24" height="24" viewBox="0 0 24 24" fill="none" xmlns="http://www.w3.org/2000/svg">
<path d="M6.88 22.75C5.38 22.75 3.96 22.17 2.9 21.1C1.84 20.03 1.25 18.62 1.25 17.12C1.25 15.62 1.84 14.2 2.9 13.14L6.32 9.72C6.47 9.57 6.67 9.49 6.88 9.49C7.09 9.49 7.29 9.57 7.44 9.72C7.75 10.03 7.75 10.53 7.44 10.84L4.02 14.26C3.26 15.02 2.84 16.04 2.84 17.12C2.84 18.2 3.26 19.21 4.02 19.98C4.78 20.74 5.8 21.16 6.88 21.16C7.96 21.16 8.98 20.74 9.74 19.98L13.16 16.56C13.31 16.41 13.51 16.33 13.72 16.33C13.93 16.33 14.13 16.41 14.28 16.56C14.59 16.87 14.59 17.37 14.28 17.68L10.86 21.1C9.8 22.16 8.39 22.75 6.88 22.75Z" fill="#FF7C65"/>
<path d="M17.13 14.5C16.92 14.5 16.72 14.42 16.57 14.27C16.42 14.12 16.34 13.92 16.34 13.71C16.34 13.5 16.42 13.3 16.57 13.15L19.99 9.73C20.75 8.97 21.17 7.95 21.17 6.87C21.17 5.79 20.75 4.78 19.99 4.01C19.23 3.25 18.21 2.83 17.13 2.83C16.05 2.83 15.03 3.25 14.27 4.01L10.85 7.43C10.7 7.58 10.5 7.66 10.29 7.66C10.08 7.66 9.88 7.58 9.73 7.43C9.58 7.28 9.5 7.08 9.5 6.87C9.5 6.66 9.58 6.46 9.73 6.31L13.15 2.89C14.21 1.83 15.62 1.24 17.13 1.24C18.64 1.24 20.05 1.82 21.11 2.89C22.17 3.95 22.76 5.36 22.76 6.87C22.76 8.38 22.18 9.79 21.11 10.85L17.69 14.27C17.54 14.42 17.34 14.5 17.13 14.5Z" fill="#FF7C65"/>
<path d="M8.58986 16.21C8.37986 16.21 8.17986 16.13 8.02986 15.98C7.71986 15.67 7.71986 15.17 8.02986 14.86L14.8699 8.02C15.0199 7.87 15.2199 7.79 15.4299 7.79C15.6399 7.79 15.8399 7.87 15.9899 8.02C16.1399 8.17 16.2199 8.37 16.2199 8.58C16.2199 8.79 16.1399 8.99 15.9899 9.14L9.14986 15.98C8.99986 16.13 8.79986 16.21 8.58986 16.21Z" fill="#FF7C65"/>
</svg>
